<svg xmlns="http://www.w3.org/2000/svg" xmlns:xlink="http://www.w3.org/1999/xlink" viewBox="0 0 750 500"><defs><style>.cls-1,.cls-13,.cls-2,.cls-3,.cls-4,.cls-5,.cls-6,.cls-67{fill:none;}.cls-1,.cls-2,.cls-3,.cls-4,.cls-5{stroke:#000;}.cls-1,.cls-13,.cls-2,.cls-3,.cls-4,.cls-5,.cls-54,.cls-57,.cls-65,.cls-67{stroke-miterlimit:10;}.cls-1{stroke-width:3px;}.cls-2{stroke-width:4px;}.cls-3{stroke-width:8px;}.cls-4{stroke-width:16px;}.cls-5{stroke-width:2px;}.cls-7{isolation:isolate;}.cls-8{clip-path:url(#clip-path);}.cls-9{fill:url(#Degradado_sin_nombre_29);}.cls-10{mask:url(#mask);}.cls-11{fill:url(#Degradado_sin_nombre_73);}.cls-12{fill:url(#Degradado_sin_nombre_71);}.cls-13{stroke:#8300a3;stroke-width:0.5px;}.cls-14,.cls-68,.cls-69,.cls-79,.cls-80{mix-blend-mode:screen;}.cls-15{fill:url(#Degradado_sin_nombre_12);}.cls-16{fill:url(#Degradado_sin_nombre_70);}.cls-17{fill:url(#Degradado_sin_nombre_12-2);}.cls-18{fill:url(#Degradado_sin_nombre_70-2);}.cls-19{fill:url(#Degradado_sin_nombre_12-3);}.cls-20{fill:url(#Degradado_sin_nombre_70-3);}.cls-21{fill:url(#Degradado_sin_nombre_12-4);}.cls-22{fill:url(#Degradado_sin_nombre_70-4);}.cls-23{fill:url(#Degradado_sin_nombre_12-5);}.cls-24{fill:url(#Degradado_sin_nombre_70-5);}.cls-25{fill:url(#Degradado_sin_nombre_12-6);}.cls-26{fill:url(#Degradado_sin_nombre_70-6);}.cls-27{fill:url(#Degradado_sin_nombre_12-7);}.cls-28{fill:url(#Degradado_sin_nombre_70-7);}.cls-29{fill:url(#Degradado_sin_nombre_12-8);}.cls-30{fill:url(#Degradado_sin_nombre_70-8);}.cls-31{fill:url(#Degradado_sin_nombre_12-9);}.cls-32{fill:url(#Degradado_sin_nombre_70-9);}.cls-33{fill:url(#Degradado_sin_nombre_12-10);}.cls-34{fill:url(#Degradado_sin_nombre_70-10);}.cls-35{fill:url(#Degradado_sin_nombre_12-11);}.cls-36{fill:url(#Degradado_sin_nombre_70-11);}.cls-37{fill:url(#Degradado_sin_nombre_12-12);}.cls-38{fill:url(#Degradado_sin_nombre_70-12);}.cls-39{fill:url(#Degradado_sin_nombre_12-13);}.cls-40{fill:url(#Degradado_sin_nombre_70-13);}.cls-41{fill:url(#Degradado_sin_nombre_12-14);}.cls-42{fill:url(#Degradado_sin_nombre_70-14);}.cls-43{fill:url(#Degradado_sin_nombre_12-15);}.cls-44{fill:url(#Degradado_sin_nombre_70-15);}.cls-45{fill:url(#Degradado_sin_nombre_12-16);}.cls-46{fill:url(#Degradado_sin_nombre_70-16);}.cls-47{fill:url(#Degradado_sin_nombre_12-17);}.cls-48{fill:url(#Degradado_sin_nombre_70-17);}.cls-49{fill:url(#Degradado_sin_nombre_12-18);}.cls-50{fill:url(#Degradado_sin_nombre_70-18);}.cls-51{fill:url(#Degradado_sin_nombre_12-19);}.cls-52{fill:url(#Degradado_sin_nombre_70-19);}.cls-53{fill:#fff;}.cls-54,.cls-56,.cls-57,.cls-59,.cls-60,.cls-62,.cls-65,.cls-66{fill:#7a28a5;}.cls-54,.cls-55,.cls-56,.cls-57,.cls-58,.cls-59,.cls-60,.cls-61,.cls-62,.cls-63,.cls-64,.cls-65,.cls-66{stroke:#00fff8;}.cls-54,.cls-55,.cls-56{stroke-width:0.308px;}.cls-55,.cls-58,.cls-61,.cls-63,.cls-64{fill:#541387;}.cls-55,.cls-56,.cls-58,.cls-59,.cls-60,.cls-61,.cls-62,.cls-63,.cls-64,.cls-66{stroke-linecap:round;stroke-linejoin:round;}.cls-57,.cls-58,.cls-59{stroke-width:0.135px;}.cls-60,.cls-61{stroke-width:0.337px;}.cls-62,.cls-63{stroke-width:0.36px;}.cls-64,.cls-65,.cls-66{stroke-width:0.329px;}.cls-67{stroke:#fff;stroke-width:0.611px;}.cls-68{fill:url(#Degradado_sin_nombre_38);}.cls-69{fill:url(#Degradado_sin_nombre_38-2);}.cls-70{clip-path:url(#clip-path-2);}.cls-71{fill:url(#Degradado_sin_nombre_12-20);}.cls-72{fill:url(#Degradado_sin_nombre_12-21);}.cls-73{fill:url(#Degradado_sin_nombre_70-20);}.cls-74{fill:url(#Degradado_sin_nombre_12-22);}.cls-75{fill:url(#Degradado_sin_nombre_70-21);}.cls-76{fill:url(#Degradado_sin_nombre_12-23);}.cls-77{fill:url(#Degradado_sin_nombre_70-22);}.cls-78{fill:url(#Degradado_sin_nombre_12-24);}.cls-79{fill:url(#Degradado_sin_nombre_38-3);}.cls-80{fill:url(#Degradado_sin_nombre_38-4);}.cls-81{filter:url(#luminosity-noclip);}</style><clipPath id="clip-path"><polygon class="cls-6" points="0 0 0 305.653 0 310.316 0 500 750 500 750 310.316 750 305.653 750 0 0 0"/></clipPath><radialGradient id="Degradado_sin_nombre_29" cx="375" cy="250" r="318.689" gradientTransform="translate(25.26 625) rotate(-90) scale(1 1.399)" gradientUnits="userSpaceOnUse"><stop offset="0.271" stop-color="#ff0393"/><stop offset="0.405" stop-color="#c60381"/><stop offset="0.559" stop-color="#8d026e"/><stop offset="0.7" stop-color="#5f025f"/><stop offset="0.825" stop-color="#3e0255"/><stop offset="0.93" stop-color="#2a024e"/><stop offset="1" stop-color="#23024c"/></radialGradient><filter id="luminosity-noclip" x="247.989" y="64.046" width="250.611" height="236.384" filterUnits="userSpaceOnUse" color-interpolation-filters="sRGB"><feFlood flood-color="#fff" result="bg"/><feBlend in="SourceGraphic" in2="bg"/></filter><mask id="mask" x="247.989" y="64.046" width="250.611" height="236.384" maskUnits="userSpaceOnUse"><g class="cls-81"><line class="cls-1" x1="247.989" y1="184.642" x2="498.599" y2="184.642"/><line class="cls-2" x1="247.989" y1="198.653" x2="498.599" y2="198.653"/><line class="cls-3" x1="247.989" y1="213.663" x2="498.599" y2="213.663"/><line class="cls-4" x1="247.989" y1="234.674" x2="498.599" y2="234.674"/><line class="cls-4" x1="247.989" y1="256.705" x2="498.599" y2="256.705"/><line class="cls-5" x1="247.989" y1="236.684" x2="498.599" y2="236.684"/></g></mask><linearGradient id="Degradado_sin_nombre_73" x1="375" y1="300.43" x2="375" y2="64.046" gradientTransform="translate(238.697 -211.789) rotate(45)" gradientUnits="userSpaceOnUse"><stop offset="0" stop-color="#ff0393"/><stop offset="0.086" stop-color="#ff0d8d"/><stop offset="0.232" stop-color="#ff287e"/><stop offset="0.42" stop-color="#ff5364"/><stop offset="0.644" stop-color="#ff9041"/><stop offset="0.894" stop-color="#ffdc14"/><stop offset="1" stop-color="#ff0"/></linearGradient><linearGradient id="Degradado_sin_nombre_71" y1="389.184" x2="750" y2="389.184" gradientUnits="userSpaceOnUse"><stop offset="0" stop-color="#0c0128"/><stop offset="0.503" stop-color="#1c0051"/><stop offset="1" stop-color="#0c0128"/></linearGradient><radialGradient id="Degradado_sin_nombre_12" cx="327.303" cy="402.816" r="141.701" gradientTransform="translate(-229.338 367.733) scale(1.729 0.026)" gradientUnits="userSpaceOnUse"><stop offset="0" stop-color="#ff0"/><stop offset="0.007" stop-color="#fff605" stop-opacity="0.964"/><stop offset="0.048" stop-color="#ffc920" stop-opacity="0.784"/><stop offset="0.093" stop-color="#ff9e39" stop-opacity="0.615"/><stop offset="0.142" stop-color="#ff794e" stop-opacity="0.467"/><stop offset="0.195" stop-color="#ff5961" stop-opacity="0.34"/><stop offset="0.254" stop-color="#ff3e71" stop-opacity="0.233"/><stop offset="0.32" stop-color="#ff287d" stop-opacity="0.147"/><stop offset="0.397" stop-color="#ff1787" stop-opacity="0.08"/><stop offset="0.493" stop-color="#ff0c8e" stop-opacity="0.034"/><stop offset="0.627" stop-color="#ff0592" stop-opacity="0.007"/><stop offset="1" stop-color="#ff0393" stop-opacity="0"/></radialGradient><radialGradient id="Degradado_sin_nombre_70" cx="327.303" cy="402.816" r="104.764" gradientTransform="translate(-229.338 367.733) scale(1.729 0.026)" gradientUnits="userSpaceOnUse"><stop offset="0" stop-color="#fff"/><stop offset="0.004" stop-color="#fff6fb" stop-opacity="0.964"/><stop offset="0.029" stop-color="#ffc9e8" stop-opacity="0.784"/><stop offset="0.057" stop-color="#ff9ed5" stop-opacity="0.615"/><stop offset="0.086" stop-color="#ff79c5" stop-opacity="0.467"/><stop offset="0.119" stop-color="#ff59b8" stop-opacity="0.34"/><stop offset="0.155" stop-color="#ff3eac" stop-opacity="0.233"/><stop offset="0.195" stop-color="#ff28a3" stop-opacity="0.147"/><stop offset="0.242" stop-color="#ff179c" stop-opacity="0.08"/><stop offset="0.3" stop-color="#ff0c97" stop-opacity="0.034"/><stop offset="0.382" stop-color="#ff0594" stop-opacity="0.007"/><stop offset="0.609" stop-color="#ff0393" stop-opacity="0"/></radialGradient><radialGradient id="Degradado_sin_nombre_12-2" cx="471.088" cy="4266.303" r="141.701" xlink:href="#Degradado_sin_nombre_12"/><radialGradient id="Degradado_sin_nombre_70-2" cx="471.088" cy="4266.303" r="104.764" xlink:href="#Degradado_sin_nombre_70"/><radialGradient id="Degradado_sin_nombre_12-3" cx="522.578" cy="-2578.636" r="141.701" xlink:href="#Degradado_sin_nombre_12"/><radialGradient id="Degradado_sin_nombre_70-3" cx="522.578" cy="-2578.636" r="104.764" xlink:href="#Degradado_sin_nombre_70"/><radialGradient id="Degradado_sin_nombre_12-4" cx="516.441" cy="-1601.778" r="141.701" xlink:href="#Degradado_sin_nombre_12"/><radialGradient id="Degradado_sin_nombre_70-4" cx="516.441" cy="-1601.778" r="104.764" xlink:href="#Degradado_sin_nombre_70"/><radialGradient id="Degradado_sin_nombre_12-5" cx="522.98" cy="926.92" r="141.701" xlink:href="#Degradado_sin_nombre_12"/><radialGradient id="Degradado_sin_nombre_70-5" cx="522.98" cy="926.92" r="104.764" xlink:href="#Degradado_sin_nombre_70"/><radialGradient id="Degradado_sin_nombre_12-6" cx="384.104" cy="-1892.613" r="141.701" xlink:href="#Degradado_sin_nombre_12"/><radialGradient id="Degradado_sin_nombre_70-6" cx="384.104" cy="-1892.613" r="104.764" xlink:href="#Degradado_sin_nombre_70"/><radialGradient id="Degradado_sin_nombre_12-7" cx="165.052" cy="3496.341" r="141.701" xlink:href="#Degradado_sin_nombre_12"/><radialGradient id="Degradado_sin_nombre_70-7" cx="165.052" cy="3496.341" r="104.764" xlink:href="#Degradado_sin_nombre_70"/><radialGradient id="Degradado_sin_nombre_12-8" cx="227.999" cy="4266.303" r="141.701" xlink:href="#Degradado_sin_nombre_12"/><radialGradient id="Degradado_sin_nombre_70-8" cx="227.999" cy="4266.303" r="104.764" xlink:href="#Degradado_sin_nombre_70"/><radialGradient id="Degradado_sin_nombre_12-9" cx="212.27" cy="1496.452" r="141.701" xlink:href="#Degradado_sin_nombre_12"/><radialGradient id="Degradado_sin_nombre_70-9" cx="212.27" cy="1496.452" r="104.764" xlink:href="#Degradado_sin_nombre_70"/><radialGradient id="Degradado_sin_nombre_12-10" cx="482.022" cy="-82.966" r="141.621" gradientTransform="matrix(1.311, 0.839, -0.014, 0.022, -23.541, 2.4)" xlink:href="#Degradado_sin_nombre_12"/><radialGradient id="Degradado_sin_nombre_70-10" cx="482.022" cy="-82.966" r="104.705" gradientTransform="matrix(1.311, 0.839, -0.014, 0.022, -23.541, 2.4)" xlink:href="#Degradado_sin_nombre_70"/><radialGradient id="Degradado_sin_nombre_12-11" cx="155.137" cy="9097.751" r="141.577" gradientTransform="matrix(-1.512, 0.37, -0.006, -0.025, 350.747, 505.873)" xlink:href="#Degradado_sin_nombre_12"/><radialGradient id="Degradado_sin_nombre_70-11" cx="155.137" cy="9097.751" r="104.672" gradientTransform="matrix(-1.512, 0.37, -0.006, -0.025, 350.747, 505.873)" xlink:href="#Degradado_sin_nombre_70"/><radialGradient id="Degradado_sin_nombre_12-12" cx="171.892" cy="6101.421" r="141.467" gradientTransform="matrix(-1.421, 0.636, -0.011, -0.024, 358.77, 439.837)" xlink:href="#Degradado_sin_nombre_12"/><radialGradient id="Degradado_sin_nombre_70-12" cx="171.892" cy="6101.422" r="104.592" gradientTransform="matrix(-1.421, 0.636, -0.011, -0.024, 358.77, 439.837)" xlink:href="#Degradado_sin_nombre_70"/><radialGradient id="Degradado_sin_nombre_12-13" cx="43.874" cy="5307.618" r="141.678" gradientTransform="matrix(-1.319, 0.828, -0.014, -0.022, 371.763, 422.007)" xlink:href="#Degradado_sin_nombre_12"/><radialGradient id="Degradado_sin_nombre_70-13" cx="43.874" cy="5307.617" r="104.747" gradientTransform="matrix(-1.319, 0.828, -0.014, -0.022, 371.763, 422.007)" xlink:href="#Degradado_sin_nombre_70"/><radialGradient id="Degradado_sin_nombre_12-14" cx="464.744" cy="-3524.512" r="141.512" gradientTransform="matrix(1.511, 0.374, -0.006, 0.025, -90.651, 234.143)" xlink:href="#Degradado_sin_nombre_12"/><radialGradient id="Degradado_sin_nombre_70-14" cx="464.744" cy="-3524.513" r="104.625" gradientTransform="matrix(1.511, 0.374, -0.006, 0.025, -90.651, 234.143)" xlink:href="#Degradado_sin_nombre_70"/><radialGradient id="Degradado_sin_nombre_12-15" cx="435.147" cy="267.319" r="141.635" gradientTransform="matrix(0.776, 0.827, -0.014, 0.013, 150.774, 8.165)" xlink:href="#Degradado_sin_nombre_12"/><radialGradient id="Degradado_sin_nombre_70-15" cx="435.147" cy="267.319" r="104.716" gradientTransform="matrix(0, 1.134, -0.019, 0, 489.777, -121.901)" xlink:href="#Degradado_sin_nombre_70"/><radialGradient id="Degradado_sin_nombre_12-16" cx="376.505" cy="6762.045" r="141.475" gradientTransform="matrix(-0.337, 1.083, -0.019, -0.006, 578.288, 41.638)" xlink:href="#Degradado_sin_nombre_12"/><radialGradient id="Degradado_sin_nombre_70-16" cx="376.505" cy="6762.047" r="104.596" gradientTransform="matrix(-0.337, 1.083, -0.019, -0.006, 578.288, 41.638)" xlink:href="#Degradado_sin_nombre_70"/><radialGradient id="Degradado_sin_nombre_12-17" cx="280.956" cy="4343.966" r="141.717" gradientTransform="matrix(0, 1.134, -0.019, 0, 479.076, 1.127)" xlink:href="#Degradado_sin_nombre_12"/><radialGradient id="Degradado_sin_nombre_70-17" cx="280.956" cy="4343.966" r="104.775" gradientTransform="matrix(0.339, 1.082, -0.018, 0.006, 379.971, -9.355)" xlink:href="#Degradado_sin_nombre_70"/><radialGradient id="Degradado_sin_nombre_12-18" cx="259.995" cy="-516.59" r="141.701" xlink:href="#Degradado_sin_nombre_12"/><radialGradient id="Degradado_sin_nombre_70-18" cx="259.995" cy="-516.59" r="104.764" xlink:href="#Degradado_sin_nombre_70"/><radialGradient id="Degradado_sin_nombre_12-19" cx="209.631" cy="-2751.391" r="141.701" xlink:href="#Degradado_sin_nombre_12"/><radialGradient id="Degradado_sin_nombre_70-19" cx="209.631" cy="-2751.391" r="104.764" xlink:href="#Degradado_sin_nombre_70"/><radialGradient id="Degradado_sin_nombre_38" cx="375.061" cy="277.676" r="105.025" gradientTransform="translate(-2433.604 254.322) scale(7.488 0.087)" gradientUnits="userSpaceOnUse"><stop offset="0" stop-color="#fff"/><stop offset="0.007" stop-color="#fff8fe" stop-opacity="0.964"/><stop offset="0.048" stop-color="#ffd7f7" stop-opacity="0.784"/><stop offset="0.093" stop-color="#ffb7f2" stop-opacity="0.615"/><stop offset="0.142" stop-color="#ff9cec" stop-opacity="0.467"/><stop offset="0.195" stop-color="#ff84e8" stop-opacity="0.34"/><stop offset="0.254" stop-color="#ff70e4" stop-opacity="0.233"/><stop offset="0.32" stop-color="#ff60e1" stop-opacity="0.147"/><stop offset="0.397" stop-color="#ff54df" stop-opacity="0.08"/><stop offset="0.493" stop-color="#ff4bdd" stop-opacity="0.034"/><stop offset="0.627" stop-color="#ff46dc" stop-opacity="0.007"/><stop offset="1" stop-color="#ff45dc" stop-opacity="0"/></radialGradient><radialGradient id="Degradado_sin_nombre_38-2" cx="375.061" cy="282.738" r="105.058" gradientTransform="translate(-2433.604 264.147) scale(7.488 0.05)" xlink:href="#Degradado_sin_nombre_38"/><clipPath id="clip-path-2"><polygon class="cls-6" points="-704.772 0 -704.772 305.653 -704.772 310.316 -704.772 500 -204.772 500 -204.772 310.316 -204.772 305.653 -204.772 0 -704.772 0"/></clipPath><radialGradient id="Degradado_sin_nombre_12-20" cx="-8.854" cy="4266.303" r="141.701" xlink:href="#Degradado_sin_nombre_12"/><radialGradient id="Degradado_sin_nombre_12-21" cx="42.636" cy="-2578.636" r="141.701" xlink:href="#Degradado_sin_nombre_12"/><radialGradient id="Degradado_sin_nombre_70-20" cx="42.636" cy="-2578.636" r="104.764" xlink:href="#Degradado_sin_nombre_70"/><radialGradient id="Degradado_sin_nombre_12-22" cx="36.498" cy="-1601.778" r="141.701" xlink:href="#Degradado_sin_nombre_12"/><radialGradient id="Degradado_sin_nombre_70-21" cx="36.498" cy="-1601.778" r="104.764" xlink:href="#Degradado_sin_nombre_70"/><radialGradient id="Degradado_sin_nombre_12-23" cx="43.038" cy="926.92" r="141.701" xlink:href="#Degradado_sin_nombre_12"/><radialGradient id="Degradado_sin_nombre_70-22" cx="43.038" cy="926.92" r="104.764" xlink:href="#Degradado_sin_nombre_70"/><radialGradient id="Degradado_sin_nombre_12-24" cx="-52.606" cy="4087.051" r="141.512" gradientTransform="matrix(1.511, 0.374, -0.006, 0.025, -90.651, 234.143)" xlink:href="#Degradado_sin_nombre_12"/><radialGradient id="Degradado_sin_nombre_38-3" cx="264.253" cy="277.676" r="105.025" xlink:href="#Degradado_sin_nombre_38"/><radialGradient id="Degradado_sin_nombre_38-4" cx="264.253" cy="282.738" r="105.058" gradientTransform="translate(-2433.604 264.147) scale(7.488 0.05)" xlink:href="#Degradado_sin_nombre_38"/></defs><g class="cls-7"><g id="BACKGROUND_2" data-name="BACKGROUND 2"><g class="cls-8"><polygon class="cls-9" points="0 0 0 305.653 0 310.316 0 500 750 500 750 310.316 750 305.653 750 0 0 0"/><g class="cls-10"><circle class="cls-11" cx="375" cy="182.238" r="118.192" transform="translate(-19.027 318.541) rotate(-45)"/></g><polygon class="cls-12" points="0 278.368 0 413.853 0 415.92 0 500 750 500 750 415.92 750 413.853 750 278.368 0 278.368"/><line class="cls-13" y1="278.368" x2="-3532.623" y2="500"/><line class="cls-13" x1="14.706" y1="278.368" x2="-3379.382" y2="500"/><line class="cls-13" x1="29.412" y1="278.368" x2="-3226.142" y2="500"/><line class="cls-13" x1="44.118" y1="278.368" x2="-3072.902" y2="500"/><line class="cls-13" x1="58.823" y1="278.368" x2="-2919.662" y2="500"/><line class="cls-13" x1="73.529" y1="278.368" x2="-2766.422" y2="500"/><line class="cls-13" x1="88.235" y1="278.368" x2="-2613.182" y2="500"/><line class="cls-13" x1="102.941" y1="278.368" x2="-2459.942" y2="500"/><line class="cls-13" x1="117.647" y1="278.368" x2="-2306.702" y2="500"/><line class="cls-13" x1="132.353" y1="278.368" x2="-2153.462" y2="500"/><line class="cls-13" x1="147.059" y1="278.368" x2="-2000.222" y2="500"/><line class="cls-13" x1="161.765" y1="278.368" x2="-1846.982" y2="500"/><line class="cls-13" x1="176.471" y1="278.368" x2="-1693.741" y2="500"/><line class="cls-13" x1="191.176" y1="278.368" x2="-1540.501" y2="500"/><line class="cls-13" x1="205.882" y1="278.368" x2="-1387.261" y2="500"/><line class="cls-13" x1="220.588" y1="278.368" x2="-1234.021" y2="500"/><line class="cls-13" x1="235.294" y1="278.368" x2="-1080.781" y2="500"/><line class="cls-13" x1="250" y1="278.368" x2="-927.541" y2="500"/><line class="cls-13" x1="264.706" y1="278.368" x2="-774.301" y2="500"/><line class="cls-13" x1="279.412" y1="278.368" x2="-621.061" y2="500"/><line class="cls-13" x1="294.118" y1="278.368" x2="-467.821" y2="500"/><line class="cls-13" x1="308.823" y1="278.368" x2="-314.581" y2="500"/><line class="cls-13" x1="323.529" y1="278.368" x2="-161.34" y2="500"/><line class="cls-13" x1="338.235" y1="278.368" x2="-8.1" y2="500"/><line class="cls-13" x1="352.941" y1="278.368" x2="145.14" y2="500"/><line class="cls-13" x1="367.647" y1="278.368" x2="298.38" y2="500"/><line class="cls-13" x1="382.353" y1="278.368" x2="451.62" y2="500"/><line class="cls-13" x1="397.059" y1="278.368" x2="604.86" y2="500"/><line class="cls-13" x1="411.765" y1="278.368" x2="758.1" y2="500"/><line class="cls-13" x1="426.471" y1="278.368" x2="911.34" y2="500"/><line class="cls-13" x1="441.176" y1="278.368" x2="1064.58" y2="500"/><line class="cls-13" x1="455.882" y1="278.368" x2="1217.82" y2="500"/><line class="cls-13" x1="470.588" y1="278.368" x2="1371.061" y2="500"/><line class="cls-13" x1="485.294" y1="278.368" x2="1524.301" y2="500"/><line class="cls-13" x1="500" y1="278.368" x2="1677.541" y2="500"/><line class="cls-13" x1="514.706" y1="278.368" x2="1830.781" y2="500"/><line class="cls-13" x1="529.412" y1="278.368" x2="1984.021" y2="500"/><line class="cls-13" x1="544.118" y1="278.368" x2="2137.261" y2="500"/><line class="cls-13" x1="558.823" y1="278.368" x2="2290.501" y2="500"/><line class="cls-13" x1="573.529" y1="278.368" x2="2443.741" y2="500"/><line class="cls-13" x1="588.235" y1="278.368" x2="2596.981" y2="500"/><line class="cls-13" x1="602.941" y1="278.368" x2="2750.221" y2="500"/><line class="cls-13" x1="617.647" y1="278.368" x2="2903.462" y2="500"/><line class="cls-13" x1="632.353" y1="278.368" x2="3056.702" y2="500"/><line class="cls-13" x1="647.059" y1="278.368" x2="3209.942" y2="500"/><line class="cls-13" x1="661.765" y1="278.368" x2="3363.182" y2="500"/><line class="cls-13" x1="676.471" y1="278.368" x2="3516.422" y2="500"/><line class="cls-13" x1="691.176" y1="278.368" x2="3669.662" y2="500"/><line class="cls-13" x1="705.882" y1="278.368" x2="3822.902" y2="500"/><line class="cls-13" x1="720.588" y1="278.368" x2="3976.142" y2="500"/><line class="cls-13" x1="735.294" y1="278.368" x2="4129.382" y2="500"/><line class="cls-13" x1="750" y1="278.368" x2="4282.622" y2="500"/><line class="cls-13" y1="278.368" x2="750" y2="278.368"/><line class="cls-13" y1="278.432" x2="750" y2="278.432"/><line class="cls-13" y1="278.656" x2="750" y2="278.656"/><line class="cls-13" y1="279.088" x2="750" y2="279.088"/><line class="cls-13" y1="279.778" x2="750" y2="279.778"/><line class="cls-13" y1="280.774" x2="750" y2="280.774"/><line class="cls-13" y1="282.125" x2="750" y2="282.125"/><line class="cls-13" y1="283.881" x2="750" y2="283.881"/><line class="cls-13" y1="286.09" x2="750" y2="286.09"/><line class="cls-13" y1="288.8" x2="750" y2="288.8"/><line class="cls-13" y1="292.061" x2="750" y2="292.061"/><line class="cls-13" y1="295.921" x2="750" y2="295.921"/><line class="cls-13" y1="300.43" x2="750" y2="300.43"/><line class="cls-13" y1="305.636" x2="750" y2="305.636"/><line class="cls-13" y1="311.588" x2="750" y2="311.588"/><line class="cls-13" y1="318.335" x2="750" y2="318.335"/><line class="cls-13" y1="325.926" x2="750" y2="325.926"/><line class="cls-13" y1="334.41" x2="750" y2="334.41"/><line class="cls-13" y1="343.835" x2="750" y2="343.835"/><line class="cls-13" y1="354.25" x2="750" y2="354.25"/><line class="cls-13" y1="365.704" x2="750" y2="365.704"/><line class="cls-13" y1="378.246" x2="750" y2="378.246"/><line class="cls-13" y1="391.925" x2="750" y2="391.925"/><line class="cls-13" y1="406.79" x2="750" y2="406.79"/><line class="cls-13" y1="422.889" x2="750" y2="422.889"/><line class="cls-13" y1="440.272" x2="750" y2="440.272"/><line class="cls-13" y1="458.987" x2="750" y2="458.987"/><line class="cls-13" y1="479.083" x2="750" y2="479.083"/><g class="cls-14"><ellipse class="cls-15" cx="336.536" cy="378.246" rx="244.8" ry="3.701"/><ellipse class="cls-16" cx="336.536" cy="378.246" rx="180.989" ry="2.736"/></g><g class="cls-14"><ellipse class="cls-17" cx="585.126" cy="479.083" rx="244.8" ry="3.701"/><ellipse class="cls-18" cx="585.126" cy="479.083" rx="180.989" ry="2.736"/></g><g class="cls-14"><ellipse class="cls-19" cx="674.147" cy="300.43" rx="244.8" ry="3.701"/><ellipse class="cls-20" cx="674.147" cy="300.43" rx="180.989" ry="2.736"/></g><g class="cls-14"><ellipse class="cls-21" cx="663.536" cy="325.926" rx="244.8" ry="3.701"/><ellipse class="cls-22" cx="663.536" cy="325.926" rx="180.989" ry="2.736"/></g><g class="cls-14"><ellipse class="cls-23" cx="674.842" cy="391.925" rx="244.8" ry="3.701"/><ellipse class="cls-24" cx="674.842" cy="391.925" rx="180.989" ry="2.736"/></g><g class="cls-14"><ellipse class="cls-25" cx="434.739" cy="318.335" rx="244.8" ry="3.701"/><ellipse class="cls-26" cx="434.739" cy="318.335" rx="180.989" ry="2.736"/></g><g class="cls-14"><ellipse class="cls-27" cx="56.02" cy="458.987" rx="244.8" ry="3.701"/><ellipse class="cls-28" cx="56.02" cy="458.987" rx="180.989" ry="2.736"/></g><g class="cls-14"><ellipse class="cls-29" cx="164.85" cy="479.083" rx="244.8" ry="3.701"/><ellipse class="cls-30" cx="164.85" cy="479.083" rx="180.989" ry="2.736"/></g><g class="cls-14"><ellipse class="cls-31" cx="137.656" cy="406.79" rx="244.8" ry="3.701"/><ellipse class="cls-32" cx="137.656" cy="406.79" rx="180.989" ry="2.736"/></g><g class="cls-14"><path class="cls-33" d="M795.383,523.728c-1.1,1.722-85.126-50.064-187.674-115.668s-184.786-120.181-183.684-121.9S509.151,336.221,611.7,401.825,796.484,522.007,795.383,523.728Z"/><path class="cls-34" d="M746.982,492.765c-.814,1.273-62.936-37.014-138.753-85.517s-136.618-88.854-135.8-90.127,62.936,37.014,138.753,85.517S747.8,491.492,746.982,492.765Z"/></g><g class="cls-14"><path class="cls-35" d="M-154.319,384.725c-.486-1.986,94.972-27.08,213.211-56.051s214.486-50.847,214.973-48.861-94.972,27.08-213.211,56.051S-153.832,386.71-154.319,384.725Z"/><path class="cls-36" d="M-98.512,371.051c-.359-1.468,70.216-20.021,157.634-41.44S217.7,292.019,218.058,293.487s-70.215,20.021-157.634,41.44S-98.152,372.519-98.512,371.051Z"/></g><g class="cls-14"><path class="cls-37" d="M-151.977,493.323c-.835-1.865,88.57-43.682,199.692-93.4S249.6,311.414,250.43,313.28s-88.57,43.682-199.692,93.4S-151.142,495.189-151.977,493.323Z"/><path class="cls-38" d="M-99.53,469.858c-.617-1.38,65.483-32.3,147.639-69.054s149.257-65.438,149.874-64.058S132.5,369.041,50.344,405.8-98.912,471.237-99.53,469.858Z"/></g><g class="cls-14"><path class="cls-39" d="M53.43,458.181c-1.087-1.731,81.623-55.592,184.738-120.3S425.754,222.117,426.84,223.849,345.217,279.441,242.1,344.15,54.516,459.913,53.43,458.181Z"/><path class="cls-40" d="M102.1,427.64c-.8-1.28,60.346-41.1,136.582-88.943S377.369,253.11,378.172,254.39s-60.347,41.1-136.583,88.943S102.9,428.92,102.1,427.64Z"/></g><g class="cls-14"><path class="cls-41" d="M847.854,371.2c-.49,1.985-96.69-20.1-214.868-49.316S419.4,267.37,419.9,265.385s96.69,20.1,214.868,49.317S848.345,369.22,847.854,371.2Z"/><path class="cls-42" d="M792.077,357.413c-.363,1.467-71.487-14.858-158.859-36.462s-157.909-40.307-157.546-41.774,71.487,14.857,158.859,36.461S792.44,355.946,792.077,357.413Z"/></g><g class="cls-14"><path class="cls-43" d="M594.494,488.606c-1.1,1.034-51.181-50.55-111.854-115.217S373.675,255.461,374.777,254.427s51.181,50.551,111.854,115.218S595.6,487.572,594.494,488.606Z"/><ellipse class="cls-44" cx="484.636" cy="371.517" rx="2.023" ry="118.706" transform="translate(-122.996 432.184) rotate(-43.175)"/></g><g class="cls-14"><path class="cls-45" d="M278.75,564.092c-1.443-.449,18.73-69.455,45.058-154.131s48.841-152.953,50.284-152.5-18.73,69.455-45.058,154.13S280.193,564.54,278.75,564.092Z"/><path class="cls-46" d="M291.176,524.127c-1.067-.332,13.848-51.351,33.313-113.954S360.6,297.09,361.666,297.421s-13.848,51.351-33.313,113.954S292.243,524.459,291.176,524.127Z"/></g><g class="cls-14"><ellipse class="cls-47" cx="395.259" cy="319.863" rx="2.736" ry="160.558" transform="translate(-77.539 132.77) rotate(-17.392)"/><path class="cls-48" d="M430.741,433.142c-1.066.334-17.817-50.112-37.413-112.674s-34.618-113.55-33.551-113.884,17.816,50.112,37.412,112.674S431.807,432.808,430.741,433.142Z"/></g><g class="cls-14"><ellipse class="cls-49" cx="220.168" cy="354.25" rx="244.8" ry="3.701"/><ellipse class="cls-50" cx="220.168" cy="354.25" rx="180.989" ry="2.736"/></g><g class="cls-14"><ellipse class="cls-51" cx="133.092" cy="295.921" rx="244.8" ry="3.701"/><ellipse class="cls-52" cx="133.092" cy="295.921" rx="180.989" ry="2.736"/></g><circle class="cls-53" cx="135.174" cy="92.29" r="0.616"/><circle class="cls-53" cx="60.157" cy="98.258" r="0.616"/><circle class="cls-53" cx="202.043" cy="204.556" r="0.616"/><circle class="cls-53" cx="171.442" cy="172.516" r="0.616"/><path class="cls-53" d="M284.478,25.232a.616.616,0,1,1-.615-.616A.615.615,0,0,1,284.478,25.232Z"/><circle class="cls-53" cx="228.173" cy="111.774" r="0.616"/><circle class="cls-53" cx="171.442" cy="19.816" r="0.616"/><path class="cls-53" d="M64.294,177.063a.616.616,0,1,1-.616-.616A.616.616,0,0,1,64.294,177.063Z"/><path class="cls-53" d="M658.311,203.94a.616.616,0,1,1-.616-.615A.616.616,0,0,1,658.311,203.94Z"/><path class="cls-53" d="M687.41,129.979a.127.127,0,1,1-.126-.126A.126.126,0,0,1,687.41,129.979Z"/><circle class="cls-53" cx="647.273" cy="30.032" r="0.126"/><circle class="cls-53" cx="700.326" cy="123.124" r="0.126"/><circle class="cls-53" cx="700.452" cy="104.684" r="0.126"/><path class="cls-53" d="M710.616,29.905a.126.126,0,1,1-.126-.126A.126.126,0,0,1,710.616,29.905Z"/><circle class="cls-53" cx="666.41" cy="60.726" r="0.126"/><path class="cls-53" d="M729.631,23.747a.127.127,0,1,1-.126-.126A.127.127,0,0,1,729.631,23.747Z"/><circle class="cls-53" cx="700.199" cy="100.516" r="0.126"/><path class="cls-53" d="M732.789,208.9a.127.127,0,1,1-.126-.127A.126.126,0,0,1,732.789,208.9Z"/><path class="cls-53" d="M683.431,172.263a.127.127,0,1,1-.126-.126A.127.127,0,0,1,683.431,172.263Z"/><circle class="cls-53" cx="718.91" cy="24" r="0.126"/><circle class="cls-53" cx="606.726" cy="172.39" r="0.126"/><circle class="cls-53" cx="554.052" cy="203.94" r="0.126"/><circle class="cls-53" cx="677.336" cy="240.726" r="0.126"/><path class="cls-53" d="M523.989,135a.127.127,0,1,1-.126-.126A.126.126,0,0,1,523.989,135Z"/><circle class="cls-53" cx="502.894" cy="74.368" r="0.126"/><path class="cls-53" d="M430.136,39.505a.126.126,0,1,1-.126-.126A.126.126,0,0,1,430.136,39.505Z"/><path class="cls-53" d="M464.368,52.263a.127.127,0,1,1-.126-.126A.127.127,0,0,1,464.368,52.263Z"/><circle class="cls-53" cx="709.294" cy="234.789" r="0.126"/><path class="cls-53" d="M697.989,203.325a.127.127,0,1,1-.126-.127A.127.127,0,0,1,697.989,203.325Z"/><path class="cls-53" d="M633.757,64.046a.126.126,0,1,1-.126-.126A.126.126,0,0,1,633.757,64.046Z"/><path class="cls-53" d="M572.178,44.921a.126.126,0,1,1-.126-.126A.125.125,0,0,1,572.178,44.921Z"/><circle class="cls-53" cx="512.115" cy="21.047" r="0.126"/><circle class="cls-53" cx="459.694" cy="44.053" r="0.126"/><path class="cls-53" d="M582.978,78.537a.126.126,0,1,1-.126-.127A.125.125,0,0,1,582.978,78.537Z"/><path class="cls-53" d="M364.705,39.632a.127.127,0,1,1-.127-.127A.127.127,0,0,1,364.705,39.632Z"/><circle class="cls-53" cx="338.337" cy="21.174" r="0.126"/><path class="cls-53" d="M409.422,23.874a.127.127,0,1,1-.127-.127A.127.127,0,0,1,409.422,23.874Z"/><path class="cls-53" d="M714.473,100.39a.127.127,0,1,1-.126-.127A.126.126,0,0,1,714.473,100.39Z"/><circle class="cls-53" cx="152.494" cy="176.447" r="0.126"/><circle class="cls-53" cx="116.243" cy="218.874" r="0.126"/><path class="cls-53" d="M211.231,153.19a.127.127,0,1,1-.126-.127A.127.127,0,0,1,211.231,153.19Z"/><circle class="cls-53" cx="64.294" cy="109.605" r="0.126"/><path class="cls-53" d="M128.148,24.616a.127.127,0,1,1-.126-.127A.126.126,0,0,1,128.148,24.616Z"/><path class="cls-53" d="M146.432,137.779a.127.127,0,1,1-.126-.126A.126.126,0,0,1,146.432,137.779Z"/><path class="cls-53" d="M98.306,137.905a.127.127,0,1,1-.127-.126A.127.127,0,0,1,98.306,137.905Z"/><circle class="cls-53" cx="101.336" cy="147.632" r="0.126"/><circle class="cls-53" cx="116.369" cy="153.19" r="0.126"/><circle class="cls-53" cx="104.242" cy="160.39" r="0.126"/><circle class="cls-53" cx="172.831" cy="130.2" r="0.126"/><path class="cls-53" d="M184.831,97.516a.127.127,0,1,1-.126-.126A.126.126,0,0,1,184.831,97.516Z"/><circle class="cls-53" cx="17.968" cy="70.453" r="0.126"/><path class="cls-53" d="M207.568,44.179a.127.127,0,1,1-.126-.126A.126.126,0,0,1,207.568,44.179Z"/><path class="cls-53" d="M288.031,78.663a.127.127,0,1,1-.126-.126A.126.126,0,0,1,288.031,78.663Z"/><path class="cls-53" d="M252.157,74.5a.126.126,0,1,1-.126-.127A.125.125,0,0,1,252.157,74.5Z"/><circle class="cls-53" cx="109.264" cy="58.2" r="0.126"/><path class="cls-53" d="M17.968,208.9a.127.127,0,1,1-.126-.127A.126.126,0,0,1,17.968,208.9Z"/><path class="cls-53" d="M55.989,243.126a.127.127,0,1,1-.126-.126A.127.127,0,0,1,55.989,243.126Z"/><path class="cls-53" d="M184.705,63.92a.127.127,0,1,1-.127-.126A.126.126,0,0,1,184.705,63.92Z"/><circle class="cls-53" cx="199.61" cy="140.81" r="0.126"/><path class="cls-53" d="M58.326,234.663a.127.127,0,1,1-.127-.126A.126.126,0,0,1,58.326,234.663Z"/><path class="cls-53" d="M622.105,213.7a.127.127,0,1,1-.127-.127A.126.126,0,0,1,622.105,213.7Z"/><circle class="cls-53" cx="578.558" cy="229.105" r="0.616"/><path class="cls-53" d="M639.553,115.421a.616.616,0,1,1-.616-.616A.616.616,0,0,1,639.553,115.421Z"/><path class="cls-53" d="M684.536,52.263a.616.616,0,1,1-.616-.616A.616.616,0,0,1,684.536,52.263Z"/><path class="cls-53" d="M720.268,177.679a.616.616,0,1,1-.616-.616A.616.616,0,0,1,720.268,177.679Z"/><path class="cls-53" d="M558.078,20.432a.616.616,0,1,1-.615-.616A.615.615,0,0,1,558.078,20.432Z"/><circle class="cls-53" cx="247.106" cy="44.305" r="0.616"/><circle class="cls-53" cx="477.994" cy="51.647" r="0.616"/><circle class="cls-53" cx="470.432" cy="14.874" r="0.616"/><circle class="cls-53" cx="39.51" cy="24.616" r="0.616"/><circle class="cls-53" cx="83.59" cy="11.226" r="0.616"/><polygon class="cls-53" points="157.641 77.023 160.42 77.369 157.641 77.714 157.295 80.493 156.95 77.714 154.171 77.369 156.95 77.023 157.295 74.244 157.641 77.023"/><polygon class="cls-53" points="26.364 204.827 29.143 205.172 26.364 205.517 26.019 208.297 25.673 205.517 22.894 205.172 25.673 204.827 26.019 202.047 26.364 204.827"/><polygon class="cls-53" points="76.577 218.402 79.356 218.747 76.577 219.093 76.231 221.872 75.885 219.093 73.106 218.747 75.885 218.402 76.231 215.623 76.577 218.402"/><polygon class="cls-53" points="21.185 39.412 23.965 39.758 21.185 40.103 20.84 42.882 20.494 40.103 17.715 39.758 20.494 39.412 20.84 36.633 21.185 39.412"/><polygon class="cls-53" points="692.146 74.023 694.925 74.368 692.146 74.714 691.8 77.493 691.455 74.714 688.676 74.368 691.455 74.023 691.8 71.244 692.146 74.023"/><polygon class="cls-53" points="227.903 70.898 230.682 71.244 227.903 71.589 227.557 74.368 227.212 71.589 224.433 71.244 227.212 70.898 227.557 68.119 227.903 70.898"/><polygon class="cls-53" points="604.073 25.502 606.852 25.847 604.073 26.193 603.727 28.972 603.382 26.193 600.603 25.847 603.382 25.502 603.727 22.723 604.073 25.502"/><polygon class="cls-53" points="612.568 163.483 613.831 163.64 612.568 163.797 612.411 165.06 612.254 163.797 610.991 163.64 612.254 163.483 612.411 162.22 612.568 163.483"/><polygon class="cls-53" points="579.331 131.589 580.594 131.746 579.331 131.903 579.174 133.166 579.017 131.903 577.754 131.746 579.017 131.589 579.174 130.326 579.331 131.589"/><polygon class="cls-53" points="92.368 43.533 93.631 43.69 92.368 43.847 92.211 45.11 92.054 43.847 90.791 43.69 92.054 43.533 92.211 42.27 92.368 43.533"/><polygon class="cls-53" points="176.808 71.087 178.071 71.244 176.808 71.401 176.651 72.664 176.494 71.401 175.231 71.244 176.494 71.087 176.651 69.824 176.808 71.087"/><polygon class="cls-53" points="128.305 187.865 129.568 188.022 128.305 188.179 128.148 189.442 127.991 188.179 126.728 188.022 127.991 187.865 128.148 186.602 128.305 187.865"/><polygon class="cls-53" points="29.3 131.589 30.563 131.746 29.3 131.903 29.143 133.166 28.986 131.903 27.723 131.746 28.986 131.589 29.143 130.326 29.3 131.589"/><polygon class="cls-53" points="547.61 158.686 548.873 158.843 547.61 159 547.453 160.263 547.296 159 546.033 158.843 547.296 158.686 547.453 157.423 547.61 158.686"/><polygon class="cls-53" points="298.42 50.874 299.683 51.032 298.42 51.189 298.263 52.452 298.105 51.189 296.843 51.032 298.105 50.874 298.263 49.611 298.42 50.874"/><path class="cls-53" d="M569.751,99.5a.127.127,0,1,1-.126-.126A.126.126,0,0,1,569.751,99.5Z"/><path class="cls-53" d="M567.9,105.842a.127.127,0,1,1-.127-.126A.127.127,0,0,1,567.9,105.842Z"/><path class="cls-53" d="M553.576,112.207a.126.126,0,1,1-.126-.126A.125.125,0,0,1,553.576,112.207Z"/><path class="cls-53" d="M546.281,109.026a.126.126,0,1,1-.126-.126A.126.126,0,0,1,546.281,109.026Z"/><path class="cls-53" d="M536.973,99.248a.127.127,0,1,1-.126-.127A.126.126,0,0,1,536.973,99.248Z"/><path class="cls-53" d="M565.755,153.567a.127.127,0,1,1-.126-.127A.127.127,0,0,1,565.755,153.567Z"/><path class="cls-53" d="M578.782,151.646a.127.127,0,1,1-.126-.127A.127.127,0,0,1,578.782,151.646Z"/><path class="cls-53" d="M595.53,144.672a.126.126,0,1,1-.126-.126A.126.126,0,0,1,595.53,144.672Z"/><path class="cls-53" d="M600.753,136.149a.126.126,0,1,1-.126-.126A.126.126,0,0,1,600.753,136.149Z"/><path class="cls-53" d="M596.626,126.826a.126.126,0,1,1-.126-.127A.126.126,0,0,1,596.626,126.826Z"/><path class="cls-53" d="M596.729,95.993a.126.126,0,1,1-.126-.127A.126.126,0,0,1,596.729,95.993Z"/><path class="cls-53" d="M598.661,80.817a.127.127,0,1,1-.127-.126A.126.126,0,0,1,598.661,80.817Z"/><path class="cls-53" d="M585.272,65.714a.127.127,0,1,1-.127-.127A.127.127,0,0,1,585.272,65.714Z"/><path class="cls-53" d="M145.552,115.494a.127.127,0,1,1-.126-.126A.127.127,0,0,1,145.552,115.494Z"/><path class="cls-53" d="M140.154,121.875a.127.127,0,1,1-.126-.126A.127.127,0,0,1,140.154,121.875Z"/><path class="cls-53" d="M123.925,135.563a.127.127,0,1,1-.126-.127A.127.127,0,0,1,123.925,135.563Z"/><path class="cls-53" d="M120.34,136.382a.127.127,0,1,1-.127-.126A.127.127,0,0,1,120.34,136.382Z"/><path class="cls-53" d="M120.4,110.154a.127.127,0,1,1-.127-.126A.127.127,0,0,1,120.4,110.154Z"/><path class="cls-53" d="M102.989,99.591a.126.126,0,1,1-.126-.127A.126.126,0,0,1,102.989,99.591Z"/><path class="cls-53" d="M95.879,97.28a.126.126,0,1,1-.126-.126A.126.126,0,0,1,95.879,97.28Z"/><path class="cls-53" d="M86.049,124.731a.126.126,0,1,1-.126-.126A.126.126,0,0,1,86.049,124.731Z"/><path class="cls-53" d="M82.89,131.128a.127.127,0,1,1-.126-.127A.127.127,0,0,1,82.89,131.128Z"/><path class="cls-53" d="M63.094,134.019a.126.126,0,1,1-.126-.126A.125.125,0,0,1,63.094,134.019Z"/><path class="cls-53" d="M53.742,129.355a.127.127,0,1,1-.126-.126A.126.126,0,0,1,53.742,129.355Z"/><path class="cls-53" d="M48.724,189.726a.127.127,0,1,1-.127-.126A.126.126,0,0,1,48.724,189.726Z"/><path class="cls-53" d="M51.82,200.536a.126.126,0,1,1-.126-.126A.126.126,0,0,1,51.82,200.536Z"/><path class="cls-53" d="M47.938,219.416a.127.127,0,1,1-.127-.126A.127.127,0,0,1,47.938,219.416Z"/><path class="cls-53" d="M47.872,228.785a.127.127,0,1,1-.127-.127A.127.127,0,0,1,47.872,228.785Z"/><path class="cls-53" d="M58.048,231.014a.127.127,0,1,1-.127-.126A.127.127,0,0,1,58.048,231.014Z"/><path class="cls-53" d="M133.324,199.785a.127.127,0,1,1-.127-.126A.126.126,0,0,1,133.324,199.785Z"/><path class="cls-53" d="M130.26,189.709a.126.126,0,1,1-.126-.126A.126.126,0,0,1,130.26,189.709Z"/><path class="cls-53" d="M118.933,160.853a.126.126,0,1,1-.126-.127A.125.125,0,0,1,118.933,160.853Z"/><path class="cls-53" d="M108.9,168.5a.127.127,0,1,1-.127-.126A.127.127,0,0,1,108.9,168.5Z"/><path class="cls-53" d="M96.008,192.946a.127.127,0,1,1-.127-.127A.126.126,0,0,1,96.008,192.946Z"/><path class="cls-53" d="M89.1,177.578a.126.126,0,1,1-.126-.127A.125.125,0,0,1,89.1,177.578Z"/><path class="cls-53" d="M59.918,107.286a.127.127,0,1,1-.127-.126A.127.127,0,0,1,59.918,107.286Z"/><path class="cls-53" d="M71.286,84.784a.126.126,0,1,1-.126-.126A.126.126,0,0,1,71.286,84.784Z"/><path class="cls-53" d="M66.442,66.893a.126.126,0,1,1-.126-.126A.125.125,0,0,1,66.442,66.893Z"/><path class="cls-53" d="M63.328,43.517a.127.127,0,1,1-.126-.126A.126.126,0,0,1,63.328,43.517Z"/><path class="cls-53" d="M33.279,109.449a.127.127,0,1,1-.127-.126A.126.126,0,0,1,33.279,109.449Z"/><path class="cls-53" d="M29.989,133.209a.127.127,0,1,1-.127-.126A.127.127,0,0,1,29.989,133.209Z"/><path class="cls-53" d="M30.348,67.463a.126.126,0,1,1-.126-.126A.126.126,0,0,1,30.348,67.463Z"/><path class="cls-53" d="M32.127,37.191A.127.127,0,1,1,32,37.065.126.126,0,0,1,32.127,37.191Z"/><path class="cls-53" d="M47.754,34.241a.127.127,0,1,1-.126-.126A.126.126,0,0,1,47.754,34.241Z"/><path class="cls-53" d="M139.435,55.011a.126.126,0,1,1-.126-.126A.126.126,0,0,1,139.435,55.011Z"/><path class="cls-53" d="M195.8,20.164a.126.126,0,1,1-.126-.126A.126.126,0,0,1,195.8,20.164Z"/><path class="cls-53" d="M200.134,19.282a.127.127,0,1,1-.127-.127A.126.126,0,0,1,200.134,19.282Z"/><path class="cls-53" d="M134.06,67.3a.126.126,0,1,1-.126-.126A.125.125,0,0,1,134.06,67.3Z"/><path class="cls-53" d="M129.514,84.208a.126.126,0,1,1-.126-.126A.125.125,0,0,1,129.514,84.208Z"/><path class="cls-53" d="M144.121,78.085a.126.126,0,1,1-.126-.126A.126.126,0,0,1,144.121,78.085Z"/><path class="cls-53" d="M158.61,110.812a.127.127,0,1,1-.126-.127A.126.126,0,0,1,158.61,110.812Z"/><path class="cls-53" d="M158.617,119.492a.127.127,0,1,1-.126-.126A.127.127,0,0,1,158.617,119.492Z"/><path class="cls-53" d="M160.151,127.4a.127.127,0,1,1-.127-.127A.127.127,0,0,1,160.151,127.4Z"/><path class="cls-53" d="M192.06,89.632a.126.126,0,1,1-.126-.126A.125.125,0,0,1,192.06,89.632Z"/><path class="cls-53" d="M194.569,89.643a.127.127,0,1,1-.126-.126A.126.126,0,0,1,194.569,89.643Z"/><path class="cls-53" d="M13.568,113.589a.126.126,0,1,1-.126-.126A.125.125,0,0,1,13.568,113.589Z"/><path class="cls-53" d="M13.626,99.238a.127.127,0,1,1-.127-.126A.127.127,0,0,1,13.626,99.238Z"/><path class="cls-53" d="M13.515,105.66a.126.126,0,1,1-.126-.126A.125.125,0,0,1,13.515,105.66Z"/><path class="cls-53" d="M8.188,162.443a.127.127,0,1,1-.127-.126A.126.126,0,0,1,8.188,162.443Z"/><path class="cls-53" d="M8.865,169.187a.127.127,0,1,1-.126-.126A.127.127,0,0,1,8.865,169.187Z"/><path class="cls-53" d="M20.843,107.149a.126.126,0,1,1-.126-.127A.126.126,0,0,1,20.843,107.149Z"/><path class="cls-53" d="M39.1,48.419a.126.126,0,1,1-.126-.127A.125.125,0,0,1,39.1,48.419Z"/><path class="cls-53" d="M53.311,38.151a.126.126,0,1,1-.126-.126A.126.126,0,0,1,53.311,38.151Z"/><path class="cls-53" d="M91.525,28.25a.127.127,0,1,1-.126-.126A.126.126,0,0,1,91.525,28.25Z"/><path class="cls-53" d="M153.093,20.009a.127.127,0,1,1-.127-.126A.127.127,0,0,1,153.093,20.009Z"/><path class="cls-53" d="M155.1,20.025a.127.127,0,1,1-.126-.126A.126.126,0,0,1,155.1,20.025Z"/><path class="cls-53" d="M102.962,20.551a.127.127,0,1,1-.126-.126A.125.125,0,0,1,102.962,20.551Z"/><path class="cls-53" d="M73.212,20.61a.127.127,0,1,1-.126-.126A.126.126,0,0,1,73.212,20.61Z"/><path class="cls-53" d="M62.142,14.318a.127.127,0,1,1-.126-.127A.126.126,0,0,1,62.142,14.318Z"/><path class="cls-53" d="M66.954,10.243a.126.126,0,1,1-.126-.127A.126.126,0,0,1,66.954,10.243Z"/><path class="cls-53" d="M76.345,10.37a.127.127,0,1,1-.126-.126A.126.126,0,0,1,76.345,10.37Z"/><path class="cls-53" d="M130.129,11.5a.127.127,0,1,1-.126-.126A.127.127,0,0,1,130.129,11.5Z"/><path class="cls-53" d="M232.331,16.448a.126.126,0,1,1-.126-.126A.125.125,0,0,1,232.331,16.448Z"/><path class="cls-53" d="M297.791,18.688a.126.126,0,1,1-.126-.126A.126.126,0,0,1,297.791,18.688Z"/><path class="cls-53" d="M398.362,15.836a.126.126,0,1,1-.126-.127A.126.126,0,0,1,398.362,15.836Z"/><path class="cls-53" d="M351.252,17.788a.127.127,0,1,1-.127-.126A.127.127,0,0,1,351.252,17.788Z"/><path class="cls-53" d="M268.773,28.027a.126.126,0,1,1-.126-.126A.125.125,0,0,1,268.773,28.027Z"/><path class="cls-53" d="M206.052,32.553a.127.127,0,1,1-.127-.126A.126.126,0,0,1,206.052,32.553Z"/><path class="cls-53" d="M240.151,14.882a.127.127,0,1,1-.126-.127A.126.126,0,0,1,240.151,14.882Z"/><path class="cls-53" d="M278.835.774a.126.126,0,1,1-.126-.126A.126.126,0,0,1,278.835.774Z"/><path class="cls-53" d="M479.979,20.81a.127.127,0,1,1-.127-.126A.126.126,0,0,1,479.979,20.81Z"/><path class="cls-53" d="M569.789,29.215a.127.127,0,1,1-.126-.126A.127.127,0,0,1,569.789,29.215Z"/><path class="cls-53" d="M672.416,28.418a.127.127,0,1,1-.126-.126A.126.126,0,0,1,672.416,28.418Z"/><path class="cls-53" d="M552.994,40.824a.126.126,0,1,1-.126-.126A.126.126,0,0,1,552.994,40.824Z"/><path class="cls-53" d="M522.639,40.953a.126.126,0,1,1-.126-.126A.125.125,0,0,1,522.639,40.953Z"/><path class="cls-53" d="M685.379,22.484a.126.126,0,1,1-.126-.126A.125.125,0,0,1,685.379,22.484Z"/><path class="cls-53" d="M700.233,20.748a.127.127,0,1,1-.127-.127A.127.127,0,0,1,700.233,20.748Z"/><path class="cls-53" d="M701.133,14.936a.127.127,0,1,1-.127-.126A.127.127,0,0,1,701.133,14.936Z"/><path class="cls-53" d="M610.2,12.885a.127.127,0,1,1-.127-.127A.127.127,0,0,1,610.2,12.885Z"/><path class="cls-53" d="M603.028,11.355a.126.126,0,1,1-.126-.127A.126.126,0,0,1,603.028,11.355Z"/><path class="cls-53" d="M641.685,12.948a.127.127,0,1,1-.127-.126A.126.126,0,0,1,641.685,12.948Z"/><path class="cls-53" d="M691.823,15.162a.127.127,0,1,1-.126-.126A.126.126,0,0,1,691.823,15.162Z"/><path class="cls-53" d="M701.749,27.141a.127.127,0,1,1-.126-.126A.127.127,0,0,1,701.749,27.141Z"/><path class="cls-53" d="M702.828,69.529a.126.126,0,1,1-.126-.126A.125.125,0,0,1,702.828,69.529Z"/><path class="cls-53" d="M733.735,8.366a.126.126,0,1,1-.126-.127A.126.126,0,0,1,733.735,8.366Z"/><path class="cls-53" d="M733.763,24.32a.126.126,0,1,1-.126-.126A.126.126,0,0,1,733.763,24.32Z"/><path class="cls-53" d="M736.178,30.66a.126.126,0,1,1-.126-.127A.126.126,0,0,1,736.178,30.66Z"/><path class="cls-53" d="M714.849,114.458a.126.126,0,1,1-.126-.127A.126.126,0,0,1,714.849,114.458Z"/><path class="cls-53" d="M707.012,74.594a.127.127,0,1,1-.126-.126A.126.126,0,0,1,707.012,74.594Z"/><path class="cls-53" d="M681.061,62a.127.127,0,0,1-.253,0,.127.127,0,1,1,.253,0Z"/><path class="cls-53" d="M668.758,61.945a.127.127,0,1,1-.126-.126A.125.125,0,0,1,668.758,61.945Z"/><path class="cls-53" d="M698.584,87.56a.126.126,0,1,1-.126-.126A.125.125,0,0,1,698.584,87.56Z"/><path class="cls-53" d="M708.028,69.4a.127.127,0,1,1-.126-.126A.127.127,0,0,1,708.028,69.4Z"/><path class="cls-53" d="M716.942,33.029a.127.127,0,1,1-.126-.126A.126.126,0,0,1,716.942,33.029Z"/><path class="cls-53" d="M716.851,157.567a.127.127,0,1,1-.127-.126A.127.127,0,0,1,716.851,157.567Z"/><path class="cls-53" d="M711.074,199.235a.126.126,0,1,1-.126-.126A.126.126,0,0,1,711.074,199.235Z"/><path class="cls-53" d="M708.293,172.1a.126.126,0,1,1-.126-.127A.125.125,0,0,1,708.293,172.1Z"/><path class="cls-53" d="M705.534,125.148a.126.126,0,1,1-.126-.126A.126.126,0,0,1,705.534,125.148Z"/><path class="cls-53" d="M693.31,112.92a.127.127,0,1,1-.126-.127A.127.127,0,0,1,693.31,112.92Z"/><path class="cls-53" d="M669.7,106.148a.126.126,0,1,1-.126-.126A.126.126,0,0,1,669.7,106.148Z"/><path class="cls-53" d="M661.406,100.629a.127.127,0,1,1-.126-.126A.127.127,0,0,1,661.406,100.629Z"/><path class="cls-53" d="M672.387,176.058a.127.127,0,1,1-.127-.127A.126.126,0,0,1,672.387,176.058Z"/><path class="cls-53" d="M685.232,203.444a.127.127,0,1,1-.127-.126A.126.126,0,0,1,685.232,203.444Z"/><path class="cls-53" d="M630.5,176.958a.127.127,0,1,1-.127-.126A.126.126,0,0,1,630.5,176.958Z"/><path class="cls-53" d="M588.492,124.282a.126.126,0,1,1-.126-.127A.126.126,0,0,1,588.492,124.282Z"/><path class="cls-53" d="M576.63,103.64a.126.126,0,1,1-.126-.126A.126.126,0,0,1,576.63,103.64Z"/><path class="cls-53" d="M555.94,163.178a.126.126,0,1,1-.126-.126A.126.126,0,0,1,555.94,163.178Z"/><path class="cls-53" d="M551.172,167.95a.126.126,0,1,1-.126-.126A.126.126,0,0,1,551.172,167.95Z"/><path class="cls-53" d="M505.731,119.754a.126.126,0,1,1-.126-.127A.125.125,0,0,1,505.731,119.754Z"/><path class="cls-53" d="M477.705,77.867a.127.127,0,1,1-.127-.126A.126.126,0,0,1,477.705,77.867Z"/><path class="cls-53" d="M442.851,63.217a.126.126,0,1,1-.126-.126A.126.126,0,0,1,442.851,63.217Z"/><path class="cls-53" d="M385.513,49.5a.126.126,0,1,1-.126-.126A.126.126,0,0,1,385.513,49.5Z"/><path class="cls-53" d="M326.486,52.551a.126.126,0,1,1-.126-.126A.125.125,0,0,1,326.486,52.551Z"/><path class="cls-53" d="M304.518,67.816a.127.127,0,1,1-.126-.126A.125.125,0,0,1,304.518,67.816Z"/><path class="cls-53" d="M272.017,95.129A.127.127,0,1,1,271.89,95,.126.126,0,0,1,272.017,95.129Z"/><path class="cls-53" d="M245.607,115.548a.127.127,0,1,1-.127-.126A.126.126,0,0,1,245.607,115.548Z"/><path class="cls-53" d="M234.7,127.972a.126.126,0,1,1-.126-.126A.126.126,0,0,1,234.7,127.972Z"/><path class="cls-53" d="M722.67,200.184a.127.127,0,1,1-.126-.127A.127.127,0,0,1,722.67,200.184Z"/><path class="cls-53" d="M727,200.224a.127.127,0,1,1-.126-.127A.127.127,0,0,1,727,200.224Z"/><path class="cls-53" d="M740.59,196.405a.126.126,0,1,1-.126-.126A.125.125,0,0,1,740.59,196.405Z"/><path class="cls-53" d="M741.306,181.8a.127.127,0,1,1-.126-.126A.126.126,0,0,1,741.306,181.8Z"/><path class="cls-53" d="M738.288,160.514a.126.126,0,1,1-.126-.127A.126.126,0,0,1,738.288,160.514Z"/><path class="cls-53" d="M738.445,53.531a.127.127,0,1,1-.126-.126A.126.126,0,0,1,738.445,53.531Z"/><path class="cls-53" d="M738.344,43.24a.127.127,0,1,1-.127-.127A.126.126,0,0,1,738.344,43.24Z"/><path class="cls-53" d="M716.424,105.883a.126.126,0,1,1-.126-.126A.126.126,0,0,1,716.424,105.883Z"/><path class="cls-53" d="M716.248,80.451a.127.127,0,1,1-.127-.127A.127.127,0,0,1,716.248,80.451Z"/><path class="cls-53" d="M717.083,85.636a.127.127,0,1,1-.127-.126A.127.127,0,0,1,717.083,85.636Z"/><path class="cls-53" d="M722.836,82.282a.127.127,0,1,1-.127-.126A.127.127,0,0,1,722.836,82.282Z"/><path class="cls-53" d="M726.649,76.586a.127.127,0,1,1-.126-.126A.125.125,0,0,1,726.649,76.586Z"/><path class="cls-53" d="M739.4,49.948a.126.126,0,1,1-.126-.126A.125.125,0,0,1,739.4,49.948Z"/><path class="cls-53" d="M739.444,40.31a.127.127,0,1,1-.126-.126A.126.126,0,0,1,739.444,40.31Z"/><path class="cls-53" d="M646.3,22.868a.127.127,0,1,1-.126-.126A.127.127,0,0,1,646.3,22.868Z"/><path class="cls-53" d="M643.9,24.047a.127.127,0,1,1-.126-.127A.127.127,0,0,1,643.9,24.047Z"/><path class="cls-53" d="M683.475,14.4a.126.126,0,1,1-.126-.126A.126.126,0,0,1,683.475,14.4Z"/><path class="cls-53" d="M687.032,12.483a.127.127,0,1,1-.126-.127A.127.127,0,0,1,687.032,12.483Z"/><path class="cls-53" d="M610.875,22.344a.127.127,0,1,1-.127-.126A.127.127,0,0,1,610.875,22.344Z"/><path class="cls-53" d="M553.189,16.928a.127.127,0,1,1-.127-.127A.127.127,0,0,1,553.189,16.928Z"/><path class="cls-53" d="M521.057,12.335a.127.127,0,1,1-.126-.126A.126.126,0,0,1,521.057,12.335Z"/><path class="cls-53" d="M499.519,12.407a.126.126,0,1,1-.126-.127A.126.126,0,0,1,499.519,12.407Z"/><path class="cls-53" d="M503.17,11.488a.127.127,0,1,1-.127-.126A.127.127,0,0,1,503.17,11.488Z"/><path class="cls-53" d="M536.4,8.259a.127.127,0,1,1-.126-.126A.127.127,0,0,1,536.4,8.259Z"/><path class="cls-53" d="M580.4,3.826a.127.127,0,1,1-.126-.126A.125.125,0,0,1,580.4,3.826Z"/><path class="cls-53" d="M538.106,17.025a.127.127,0,1,1-.127-.126A.126.126,0,0,1,538.106,17.025Z"/><path class="cls-53" d="M533.106,18.716a.126.126,0,1,1-.126-.126A.125.125,0,0,1,533.106,18.716Z"/><path class="cls-53" d="M644.611,11.036a.127.127,0,1,1-.126-.126A.126.126,0,0,1,644.611,11.036Z"/><path class="cls-53" d="M639.682,46.681a.126.126,0,1,1-.126-.126A.126.126,0,0,1,639.682,46.681Z"/><path class="cls-53" d="M642.061,68.638a.126.126,0,1,1-.126-.126A.125.125,0,0,1,642.061,68.638Z"/><path class="cls-53" d="M651.916,77.052a.127.127,0,1,1-.127-.126A.127.127,0,0,1,651.916,77.052Z"/><path class="cls-53" d="M645.576,90.689a.127.127,0,1,1-.126-.126A.126.126,0,0,1,645.576,90.689Z"/><path class="cls-53" d="M642.507,108.442a.127.127,0,1,1-.127-.126A.127.127,0,0,1,642.507,108.442Z"/><path class="cls-53" d="M667.28,117.033a.127.127,0,1,1-.126-.127A.127.127,0,0,1,667.28,117.033Z"/><path class="cls-53" d="M711.876,204.3a.126.126,0,1,1-.126-.127A.126.126,0,0,1,711.876,204.3Z"/><path class="cls-53" d="M719.67,240.985a.127.127,0,1,1-.126-.126A.127.127,0,0,1,719.67,240.985Z"/><path class="cls-53" d="M718.139,240.166a.126.126,0,1,1-.126-.126A.125.125,0,0,1,718.139,240.166Z"/><path class="cls-53" d="M711.036,249.115a.127.127,0,1,1-.126-.127A.126.126,0,0,1,711.036,249.115Z"/><path class="cls-53" d="M717.4,213.464a.127.127,0,1,1-.126-.126A.126.126,0,0,1,717.4,213.464Z"/><path class="cls-53" d="M664.648,199.692a.127.127,0,1,1-.127-.127A.127.127,0,0,1,664.648,199.692Z"/><path class="cls-53" d="M656.443,151.075a.127.127,0,1,1-.127-.126A.127.127,0,0,1,656.443,151.075Z"/><path class="cls-53" d="M652.585,109.333a.127.127,0,1,1-.127-.127A.127.127,0,0,1,652.585,109.333Z"/><path class="cls-53" d="M627.506,128.274a.127.127,0,1,1-.127-.126A.127.127,0,0,1,627.506,128.274Z"/><path class="cls-53" d="M615.946,92.963a.126.126,0,1,1-.126-.126A.126.126,0,0,1,615.946,92.963Z"/><path class="cls-53" d="M605.47,75.783a.127.127,0,1,1-.127-.127A.127.127,0,0,1,605.47,75.783Z"/><path class="cls-53" d="M495.918,93.057a.126.126,0,1,1-.126-.127A.126.126,0,0,1,495.918,93.057Z"/><path class="cls-53" d="M472.308,67.771a.126.126,0,1,1-.126-.126A.126.126,0,0,1,472.308,67.771Z"/><path class="cls-53" d="M371.76,50.284a.127.127,0,1,1-.127-.126A.126.126,0,0,1,371.76,50.284Z"/><path class="cls-53" d="M285.509,50.223a.126.126,0,1,1-.126-.126A.126.126,0,0,1,285.509,50.223Z"/><path class="cls-53" d="M240.4,126.378a.127.127,0,1,1-.126-.126A.126.126,0,0,1,240.4,126.378Z"/><path class="cls-53" d="M230.38,172.742a.127.127,0,1,1-.126-.126A.127.127,0,0,1,230.38,172.742Z"/><path class="cls-53" d="M229.6,184.346a.127.127,0,1,1-.126-.126A.126.126,0,0,1,229.6,184.346Z"/><path class="cls-53" d="M177.337,181.289a.127.127,0,1,1-.126-.126A.127.127,0,0,1,177.337,181.289Z"/><path class="cls-53" d="M116.886,138.166a.127.127,0,1,1-.127-.127A.126.126,0,0,1,116.886,138.166Z"/><path class="cls-53" d="M115.693,123.223a.127.127,0,1,1-.126-.127A.127.127,0,0,1,115.693,123.223Z"/><path class="cls-53" d="M65.57,184.421a.127.127,0,1,1-.126-.126A.126.126,0,0,1,65.57,184.421Z"/><path class="cls-53" d="M67.066,156.2a.127.127,0,1,1-.126-.127A.127.127,0,0,1,67.066,156.2Z"/><path class="cls-53" d="M57.66,154.594a.127.127,0,1,1-.126-.126A.127.127,0,0,1,57.66,154.594Z"/><path class="cls-53" d="M36.552,179.566a.127.127,0,1,1-.126-.126A.125.125,0,0,1,36.552,179.566Z"/><path class="cls-53" d="M33.907,183.062a.127.127,0,1,1-.126-.126A.126.126,0,0,1,33.907,183.062Z"/><path class="cls-53" d="M34.173,163.575a.127.127,0,1,1-.126-.126A.127.127,0,0,1,34.173,163.575Z"/><path class="cls-53" d="M20.408,228.116a.127.127,0,1,1-.126-.127A.127.127,0,0,1,20.408,228.116Z"/><path class="cls-53" d="M18.9,218.614a.126.126,0,1,1-.126-.126A.125.125,0,0,1,18.9,218.614Z"/><path class="cls-53" d="M18.015,195.817a.127.127,0,1,1-.126-.127A.127.127,0,0,1,18.015,195.817Z"/><path class="cls-53" d="M13.875,222.649a.126.126,0,1,1-.126-.126A.126.126,0,0,1,13.875,222.649Z"/><path class="cls-53" d="M12.406,210.969a.126.126,0,1,1-.126-.126A.125.125,0,0,1,12.406,210.969Z"/><path class="cls-53" d="M10.707,195.786a.126.126,0,1,1-.126-.126A.126.126,0,0,1,10.707,195.786Z"/><path class="cls-53" d="M10.766,182.791a.127.127,0,1,1-.126-.126A.127.127,0,0,1,10.766,182.791Z"/><path class="cls-53" d="M12.538,167.408a.127.127,0,1,1-.126-.126A.126.126,0,0,1,12.538,167.408Z"/><path class="cls-53" d="M21.216,161.9a.127.127,0,1,1-.127-.127A.127.127,0,0,1,21.216,161.9Z"/><path class="cls-53" d="M23.709,161.953a.127.127,0,0,1-.253,0,.127.127,0,1,1,.253,0Z"/><path class="cls-53" d="M26.951,115.059a.126.126,0,1,1-.126-.126A.126.126,0,0,1,26.951,115.059Z"/><path class="cls-53" d="M34.035,65.761a.126.126,0,1,1-.126-.127A.125.125,0,0,1,34.035,65.761Z"/><path class="cls-53" d="M32.2,33.506a.127.127,0,1,1-.127-.126A.126.126,0,0,1,32.2,33.506Z"/><path class="cls-53" d="M27.726,23.476a.127.127,0,1,1-.127-.127A.126.126,0,0,1,27.726,23.476Z"/><path class="cls-53" d="M6.769,54.432a.127.127,0,1,1-.127-.126A.126.126,0,0,1,6.769,54.432Z"/><path class="cls-53" d="M2.113,64.514a.127.127,0,1,1-.126-.126A.126.126,0,0,1,2.113,64.514Z"/><path class="cls-53" d="M5.935,36.872a.126.126,0,1,1-.126-.126A.125.125,0,0,1,5.935,36.872Z"/><path class="cls-53" d="M12.757,21.651a.127.127,0,1,1-.127-.126A.126.126,0,0,1,12.757,21.651Z"/><path class="cls-53" d="M12.852,15.709a.126.126,0,1,1-.126-.126A.126.126,0,0,1,12.852,15.709Z"/><path class="cls-53" d="M14.588,15.563a.127.127,0,1,1-.127-.126A.127.127,0,0,1,14.588,15.563Z"/><path class="cls-53" d="M22.838,22.788a.126.126,0,1,1-.126-.126A.126.126,0,0,1,22.838,22.788Z"/><path class="cls-53" d="M34.044,23.3a.127.127,0,1,1-.127-.127A.127.127,0,0,1,34.044,23.3Z"/><path class="cls-53" d="M42.534,25.635a.127.127,0,1,1-.127-.127A.127.127,0,0,1,42.534,25.635Z"/><path class="cls-53" d="M52.324,47.62a.127.127,0,1,1-.126-.126A.127.127,0,0,1,52.324,47.62Z"/><path class="cls-53" d="M21.2,73.73a.127.127,0,1,1-.127-.126A.126.126,0,0,1,21.2,73.73Z"/><path class="cls-53" d="M32.285,73.235a.127.127,0,1,1-.126-.126A.125.125,0,0,1,32.285,73.235Z"/><path class="cls-53" d="M73.608,78.316a.127.127,0,1,1-.127-.126A.127.127,0,0,1,73.608,78.316Z"/><path class="cls-53" d="M87.954,67.313a.126.126,0,1,1-.126-.127A.125.125,0,0,1,87.954,67.313Z"/><path class="cls-53" d="M89.426,57.161a.127.127,0,1,1-.127-.126A.127.127,0,0,1,89.426,57.161Z"/><path class="cls-53" d="M80.208,76.758a.127.127,0,1,1-.126-.127A.127.127,0,0,1,80.208,76.758Z"/><path class="cls-53" d="M80.33,78.236a.127.127,0,1,1-.127-.126A.127.127,0,0,1,80.33,78.236Z"/><path class="cls-53" d="M63.541,68.619a.127.127,0,1,1-.127-.126A.127.127,0,0,1,63.541,68.619Z"/><path class="cls-53" d="M64.708,69.8a.127.127,0,1,1-.127-.127A.127.127,0,0,1,64.708,69.8Z"/><path class="cls-53" d="M74.731,58.677a.126.126,0,1,1-.126-.126A.126.126,0,0,1,74.731,58.677Z"/><path class="cls-53" d="M637.813,71.237a.126.126,0,1,1-.126-.126A.125.125,0,0,1,637.813,71.237Z"/><path class="cls-53" d="M649.5,83.648a.126.126,0,1,1-.126-.126A.126.126,0,0,1,649.5,83.648Z"/><path class="cls-53" d="M656.147,80.453a.126.126,0,1,1-.126-.126A.126.126,0,0,1,656.147,80.453Z"/><path class="cls-53" d="M592.5,54.374a.127.127,0,1,1-.127-.127A.126.126,0,0,1,592.5,54.374Z"/><path class="cls-53" d="M486.811,29.385a.126.126,0,1,1-.126-.126A.126.126,0,0,1,486.811,29.385Z"/><path class="cls-53" d="M398.356,17.094a.126.126,0,1,1-.126-.127A.125.125,0,0,1,398.356,17.094Z"/><path class="cls-53" d="M374.871,18a.127.127,0,1,1-.126-.126A.126.126,0,0,1,374.871,18Z"/><path class="cls-53" d="M421.841,19.531a.126.126,0,1,1-.126-.126A.126.126,0,0,1,421.841,19.531Z"/><path class="cls-53" d="M467.056,19.263a.127.127,0,1,1-.126-.126A.126.126,0,0,1,467.056,19.263Z"/><path class="cls-53" d="M408.911,61.725a.127.127,0,1,1-.126-.126A.126.126,0,0,1,408.911,61.725Z"/><path class="cls-53" d="M462.367,25.7a.127.127,0,1,1-.127-.126A.127.127,0,0,1,462.367,25.7Z"/><path class="cls-53" d="M488.2,44.063a.127.127,0,1,1-.127-.126A.127.127,0,0,1,488.2,44.063Z"/><path class="cls-53" d="M555.326,66.653a.127.127,0,1,1-.127-.127A.126.126,0,0,1,555.326,66.653Z"/><path class="cls-53" d="M600.074,31.525a.126.126,0,1,1-.126-.126A.126.126,0,0,1,600.074,31.525Z"/><path class="cls-53" d="M624.419,89a.126.126,0,1,1-.126-.127A.126.126,0,0,1,624.419,89Z"/><path class="cls-53" d="M657.757,99.732a.127.127,0,1,1-.126-.126A.126.126,0,0,1,657.757,99.732Z"/><path class="cls-53" d="M675.033,98.176a.126.126,0,1,1-.126-.126A.125.125,0,0,1,675.033,98.176Z"/><path class="cls-53" d="M689.322,146.406a.126.126,0,1,1-.126-.126A.126.126,0,0,1,689.322,146.406Z"/><path class="cls-53" d="M683.522,95.883a.126.126,0,1,1-.126-.126A.126.126,0,0,1,683.522,95.883Z"/><path class="cls-53" d="M551.916,70.077a.127.127,0,1,1-.126-.127A.126.126,0,0,1,551.916,70.077Z"/><path class="cls-53" d="M502.878,61.759a.127.127,0,1,1-.126-.126A.127.127,0,0,1,502.878,61.759Z"/><path class="cls-53" d="M494.547,48.778a.126.126,0,1,1-.126-.126A.126.126,0,0,1,494.547,48.778Z"/><path class="cls-53" d="M497.654,33.99a.126.126,0,1,1-.126-.126A.125.125,0,0,1,497.654,33.99Z"/><path class="cls-53" d="M322.676,30.276a.127.127,0,1,1-.127-.126A.126.126,0,0,1,322.676,30.276Z"/><path class="cls-53" d="M293.059,25.056a.127.127,0,1,1-.126-.126A.127.127,0,0,1,293.059,25.056Z"/><path class="cls-53" d="M353.762,22.082a.126.126,0,1,1-.126-.127A.126.126,0,0,1,353.762,22.082Z"/><polygon class="cls-54" points="374.717 265.975 426.458 210.843 453.327 230.895 478.074 223.913 517.088 235.883 571.242 221.918 594.242 228.568 617.825 216.265 660.333 265.975 374.717 265.975"/><polygon class="cls-55" points="617.825 216.265 620.154 247.306 594.242 228.568 617.825 216.265"/><polygon class="cls-56" points="620.154 247.306 645.535 248.67 617.825 216.265 620.154 247.306"/><polygon class="cls-55" points="645.535 248.67 643.81 265.975 620.154 247.306 645.535 248.67"/><polygon class="cls-56" points="620.154 247.306 608.545 265.975 643.81 265.975 620.154 247.306"/><polygon class="cls-56" points="620.154 247.306 602.431 248.02 594.242 228.568 620.154 247.306"/><polygon class="cls-55" points="602.431 248.02 577.319 257.621 594.242 228.568 602.431 248.02"/><polygon class="cls-55" points="608.545 265.975 602.431 248.02 620.154 247.306 608.545 265.975"/><polygon class="cls-55" points="577.319 257.621 555.811 242.034 531.937 258.327 577.319 257.621"/><polygon class="cls-55" points="577.319 257.621 563.526 265.975 585.217 265.975 577.319 257.621"/><polygon class="cls-56" points="608.545 265.975 577.319 257.621 602.431 248.02 608.545 265.975"/><polygon class="cls-56" points="531.937 258.327 534.266 243.094 555.811 242.034 531.937 258.327"/><polygon class="cls-56" points="555.811 242.034 575.609 238.294 577.319 257.621 555.811 242.034"/><polygon class="cls-56" points="594.242 228.568 571.242 221.918 575.609 238.294 594.242 228.568"/><polygon class="cls-55" points="571.242 221.918 555.811 242.034 575.609 238.294 571.242 221.918"/><polygon class="cls-56" points="534.266 243.094 571.242 221.918 555.811 242.034 534.266 243.094"/><polygon class="cls-55" points="534.266 243.094 517.088 235.883 571.242 221.918 534.266 243.094"/><polygon class="cls-56" points="563.526 265.975 551.296 258.026 577.319 257.621 563.526 265.975"/><polygon class="cls-56" points="551.296 258.026 531.937 258.327 541.617 265.975 551.296 258.026"/><polygon class="cls-55" points="531.937 258.327 502.64 265.975 541.617 265.975 531.937 258.327"/><polygon class="cls-56" points="531.937 258.327 517.088 235.883 534.266 243.094 531.937 258.327"/><polygon class="cls-56" points="517.088 235.883 502.64 265.975 531.937 258.327 517.088 235.883"/><polygon class="cls-56" points="502.64 265.975 472.397 250.181 456.238 265.975 502.64 265.975"/><polygon class="cls-56" points="472.397 250.181 493.942 245.692 502.64 265.975 472.397 250.181"/><polygon class="cls-55" points="493.942 245.692 517.088 235.883 502.64 265.975 493.942 245.692"/><polygon class="cls-56" points="493.942 245.692 478.074 223.913 517.088 235.883 493.942 245.692"/><polygon class="cls-55" points="478.074 223.913 472.397 250.181 493.942 245.692 478.074 223.913"/><polygon class="cls-56" points="472.397 250.181 453.327 230.895 478.074 223.913 472.397 250.181"/><polygon class="cls-56" points="453.327 230.895 421.301 247.105 426.458 210.843 453.327 230.895"/><polygon class="cls-55" points="472.397 250.181 444.447 247.105 453.327 230.895 472.397 250.181"/><polygon class="cls-56" points="456.238 265.975 444.447 247.105 472.397 250.181 456.238 265.975"/><polygon class="cls-56" points="444.447 247.105 421.301 247.105 453.327 230.895 444.447 247.105"/><polygon class="cls-55" points="444.447 247.105 427.123 265.975 456.238 265.975 444.447 247.105"/><polygon class="cls-56" points="427.123 265.975 421.301 247.105 444.447 247.105 427.123 265.975"/><polygon class="cls-56" points="421.301 247.105 374.717 265.975 427.123 265.975 421.301 247.105"/><polygon class="cls-55" points="375.663 265.227 426.458 210.843 421.301 247.105 375.663 265.227"/><polygon class="cls-57" points="-24.7 278.274 0.005 262.29 9.737 262.907 21.176 253.224 37.67 265.092 61.393 255.198 71.469 261.887 85.459 262.561 100.422 278.274 -24.7 278.274"/><polygon class="cls-58" points="85.459 262.561 82.82 270.096 71.469 261.887 85.459 262.561"/><polygon class="cls-59" points="82.82 270.096 93.939 270.693 85.459 262.561 82.82 270.096"/><polygon class="cls-58" points="93.939 270.693 93.184 278.274 82.82 270.096 93.939 270.693"/><polygon class="cls-59" points="82.82 270.096 77.735 278.274 93.184 278.274 82.82 270.096"/><polygon class="cls-59" points="82.82 270.096 75.056 270.408 71.469 261.887 82.82 270.096"/><polygon class="cls-58" points="75.056 270.408 64.055 274.614 71.469 261.887 75.056 270.408"/><polygon class="cls-58" points="77.735 278.274 75.056 270.408 82.82 270.096 77.735 278.274"/><polygon class="cls-58" points="64.055 274.614 54.633 267.786 44.174 274.924 64.055 274.614"/><polygon class="cls-58" points="64.055 274.614 58.013 278.274 67.515 278.274 64.055 274.614"/><polygon class="cls-59" points="77.735 278.274 64.055 274.614 75.056 270.408 77.735 278.274"/><polygon class="cls-59" points="44.174 274.924 45.195 268.251 54.633 267.786 44.174 274.924"/><polygon class="cls-59" points="54.633 267.786 63.306 266.148 64.055 274.614 54.633 267.786"/><polygon class="cls-59" points="71.469 261.887 61.393 255.198 63.306 266.148 71.469 261.887"/><polygon class="cls-58" points="61.393 255.198 54.633 267.786 63.306 266.148 61.393 255.198"/><polygon class="cls-59" points="45.195 268.251 61.393 255.198 54.633 267.786 45.195 268.251"/><polygon class="cls-58" points="45.195 268.251 37.67 265.092 61.393 255.198 45.195 268.251"/><polygon class="cls-59" points="58.013 278.274 52.655 274.792 64.055 274.614 58.013 278.274"/><polygon class="cls-59" points="52.655 274.792 44.174 274.924 48.415 278.274 52.655 274.792"/><polygon class="cls-58" points="44.174 274.924 31.34 278.274 48.415 278.274 44.174 274.924"/><polygon class="cls-59" points="44.174 274.924 37.67 265.092 45.195 268.251 44.174 274.924"/><polygon class="cls-59" points="37.67 265.092 31.34 278.274 44.174 274.924 37.67 265.092"/><polygon class="cls-59" points="31.34 278.274 18.091 271.355 11.013 278.274 31.34 278.274"/><polygon class="cls-59" points="18.091 271.355 27.53 269.389 31.34 278.274 18.091 271.355"/><polygon class="cls-58" points="27.53 269.389 37.67 265.092 31.34 278.274 27.53 269.389"/><polygon class="cls-59" points="27.53 269.389 21.176 253.224 37.67 265.092 27.53 269.389"/><polygon class="cls-58" points="21.176 253.224 18.091 271.355 27.53 269.389 21.176 253.224"/><polygon class="cls-59" points="18.091 271.355 9.737 262.907 21.176 253.224 18.091 271.355"/><polygon class="cls-59" points="9.737 262.907 -4.293 270.008 0.005 262.29 9.737 262.907"/><polygon class="cls-58" points="18.091 271.355 5.847 270.008 9.737 262.907 18.091 271.355"/><polygon class="cls-59" points="11.013 278.274 5.847 270.008 18.091 271.355 11.013 278.274"/><polygon class="cls-59" points="5.847 270.008 -4.293 270.008 9.737 262.907 5.847 270.008"/><polygon class="cls-58" points="5.847 270.008 -1.742 278.274 11.013 278.274 5.847 270.008"/><polygon class="cls-59" points="-1.742 278.274 -4.293 270.008 5.847 270.008 -1.742 278.274"/><polygon class="cls-58" points="-24.285 277.947 0.005 262.29 -4.293 270.008 -24.285 277.947"/><polygon class="cls-60" points="761.139 277.71 742.596 266.623 752.502 265.091 761.139 277.71"/><polygon class="cls-61" points="742.596 266.623 740.119 277.71 761.139 277.71 742.596 266.623"/><polygon class="cls-60" points="740.119 277.71 729.323 266.623 742.596 266.623 740.119 277.71"/><polygon class="cls-60" points="729.323 266.623 725.069 253.922 742.596 266.623 729.323 266.623"/><polygon class="cls-61" points="729.323 266.623 719.036 277.71 740.119 277.71 729.323 266.623"/><polygon class="cls-60" points="729.323 266.623 717.067 267.505 719.036 277.71 729.323 266.623"/><polygon class="cls-61" points="717.067 267.505 725.069 253.922 729.323 266.623 717.067 267.505"/><polygon class="cls-60" points="717.067 267.505 706.525 258.902 725.069 253.922 717.067 267.505"/><polygon class="cls-60" points="717.067 267.505 704.684 269.66 706.525 258.902 717.067 267.505"/><polygon class="cls-60" points="719.036 277.71 704.684 269.66 717.067 267.505 719.036 277.71"/><polygon class="cls-61" points="704.684 269.66 695.603 249.087 706.525 258.902 704.684 269.66"/><polygon class="cls-60" points="704.684 269.66 696.555 277.71 719.036 277.71 704.684 269.66"/><polygon class="cls-60" points="704.684 269.66 683.664 252.696 695.603 249.087 704.684 269.66"/><polygon class="cls-61" points="696.555 277.71 683.664 252.696 704.684 269.66 696.555 277.71"/><polygon class="cls-60" points="683.664 252.696 681.378 265.203 696.555 277.71 683.664 252.696"/><polygon class="cls-60" points="681.378 265.203 673.334 277.71 696.555 277.71 681.378 265.203"/><polygon class="cls-60" points="669.185 241.12 671.167 257.067 657.495 251.537 669.185 241.12"/><polygon class="cls-60" points="671.167 257.067 683.664 252.696 669.185 241.12 671.167 257.067"/><polygon class="cls-61" points="681.378 265.203 671.167 257.067 683.664 252.696 681.378 265.203"/><polygon class="cls-60" points="671.167 257.067 673.334 277.71 681.378 265.203 671.167 257.067"/><polygon class="cls-61" points="671.167 257.067 654.452 277.71 673.334 277.71 671.167 257.067"/><polygon class="cls-60" points="657.495 251.537 646.747 259.821 644.205 248.118 657.495 251.537"/><polygon class="cls-60" points="654.452 277.71 657.077 260.714 671.167 257.067 654.452 277.71"/><polygon class="cls-60" points="657.077 260.714 657.495 251.537 671.167 257.067 657.077 260.714"/><polygon class="cls-60" points="657.077 260.714 646.747 259.821 657.495 251.537 657.077 260.714"/><polygon class="cls-60" points="646.747 259.821 633.2 264.281 644.205 248.118 646.747 259.821"/><polygon class="cls-60" points="646.747 259.821 654.452 277.71 657.077 260.714 646.747 259.821"/><polygon class="cls-61" points="654.452 277.71 635.655 277.71 646.747 259.821 654.452 277.71"/><polygon class="cls-60" points="633.2 264.281 635.655 277.71 646.747 259.821 633.2 264.281"/><polygon class="cls-61" points="633.2 264.281 626.765 243.631 644.205 248.118 633.2 264.281"/><polygon class="cls-60" points="633.2 264.281 622.002 258.792 626.765 243.631 633.2 264.281"/><polygon class="cls-61" points="622.002 258.792 609.55 256.339 626.765 243.631 622.002 258.792"/><polygon class="cls-60" points="609.55 256.339 612.159 266.106 599.331 263.882 609.55 256.339"/><polygon class="cls-60" points="612.159 266.106 622.002 258.792 609.55 256.339 612.159 266.106"/><polygon class="cls-60" points="633.2 264.281 621.176 268.765 622.002 258.792 633.2 264.281"/><polygon class="cls-61" points="621.176 268.765 612.159 266.106 622.002 258.792 621.176 268.765"/><polygon class="cls-61" points="621.176 268.765 628.67 273.53 633.2 264.281 621.176 268.765"/><polygon class="cls-60" points="635.655 277.71 628.67 273.53 633.2 264.281 635.655 277.71"/><polygon class="cls-60" points="628.67 273.53 620.922 277.71 635.655 277.71 628.67 273.53"/><polygon class="cls-60" points="621.176 268.765 620.922 277.71 628.67 273.53 621.176 268.765"/><polygon class="cls-60" points="599.331 263.882 607.523 270.748 612.159 266.106 599.331 263.882"/><polygon class="cls-60" points="607.523 270.748 621.176 268.765 612.159 266.106 607.523 270.748"/><polygon class="cls-60" points="620.922 277.71 607.523 270.748 621.176 268.765 620.922 277.71"/><polygon class="cls-60" points="607.523 270.748 598.065 277.71 620.922 277.71 607.523 270.748"/><polygon class="cls-60" points="599.331 263.882 589.424 268.427 586.307 258.902 599.331 263.882"/><polygon class="cls-60" points="589.424 268.427 607.523 270.748 599.331 263.882 589.424 268.427"/><polygon class="cls-60" points="598.336 277.71 589.424 268.427 607.523 270.748 598.336 277.71"/><polygon class="cls-60" points="589.424 268.427 562.21 277.409 586.307 258.902 589.424 268.427"/><polygon class="cls-60" points="589.424 268.427 582.985 277.71 598.474 277.409 589.424 268.427"/><polygon class="cls-60" points="582.985 277.71 589.424 268.427 561.673 277.71 582.985 277.71"/><polygon class="cls-62" points="94.151 278.368 115.328 267.281 104.014 265.749 94.151 278.368"/><polygon class="cls-63" points="115.328 267.281 118.157 278.368 94.151 278.368 115.328 267.281"/><polygon class="cls-62" points="118.157 278.368 130.486 267.281 115.328 267.281 118.157 278.368"/><polygon class="cls-62" points="130.486 267.281 135.79 245.692 115.328 267.281 130.486 267.281"/><polygon class="cls-63" points="130.486 267.281 142.235 278.368 118.157 278.368 130.486 267.281"/><polygon class="cls-62" points="130.486 267.281 144.483 268.163 142.235 278.368 130.486 267.281"/><polygon class="cls-63" points="144.483 268.163 135.79 245.692 130.486 267.281 144.483 268.163"/><polygon class="cls-62" points="144.483 268.163 156.522 259.56 135.79 245.692 144.483 268.163"/><polygon class="cls-62" points="144.483 268.163 158.626 270.318 156.522 259.56 144.483 268.163"/><polygon class="cls-62" points="142.235 278.368 158.626 270.318 144.483 268.163 142.235 278.368"/><polygon class="cls-63" points="158.626 270.318 168.997 249.745 156.522 259.56 158.626 270.318"/><polygon class="cls-62" points="158.626 270.318 167.909 278.368 142.235 278.368 158.626 270.318"/><polygon class="cls-62" points="158.626 270.318 182.632 253.354 168.997 249.745 158.626 270.318"/><polygon class="cls-63" points="167.909 278.368 182.632 253.354 158.626 270.318 167.909 278.368"/><polygon class="cls-62" points="182.632 253.354 185.243 265.861 167.909 278.368 182.632 253.354"/><polygon class="cls-62" points="185.243 265.861 194.429 278.368 167.909 278.368 185.243 265.861"/><polygon class="cls-62" points="199.167 241.778 196.903 257.726 212.518 252.195 199.167 241.778"/><polygon class="cls-62" points="196.903 257.726 182.632 253.354 199.167 241.778 196.903 257.726"/><polygon class="cls-63" points="185.243 265.861 196.903 257.726 182.632 253.354 185.243 265.861"/><polygon class="cls-62" points="196.903 257.726 194.429 278.368 185.243 265.861 196.903 257.726"/><polygon class="cls-63" points="196.903 257.726 215.993 278.368 194.429 278.368 196.903 257.726"/><polygon class="cls-62" points="212.518 252.195 224.793 260.479 227.696 248.776 212.518 252.195"/><polygon class="cls-62" points="215.993 278.368 212.996 261.372 196.903 257.726 215.993 278.368"/><polygon class="cls-62" points="212.996 261.372 212.518 252.195 196.903 257.726 212.996 261.372"/><polygon class="cls-62" points="212.996 261.372 224.793 260.479 212.518 252.195 212.996 261.372"/><polygon class="cls-62" points="224.793 260.479 240.265 264.939 227.696 248.776 224.793 260.479"/><polygon class="cls-62" points="224.793 260.479 215.993 278.368 212.996 261.372 224.793 260.479"/><polygon class="cls-63" points="215.993 278.368 237.461 278.368 224.793 260.479 215.993 278.368"/><polygon class="cls-62" points="240.265 264.939 237.461 278.368 224.793 260.479 240.265 264.939"/><polygon class="cls-63" points="240.265 264.939 247.614 244.289 227.696 248.776 240.265 264.939"/><polygon class="cls-62" points="240.265 264.939 253.054 259.45 247.614 244.289 240.265 264.939"/><polygon class="cls-63" points="253.054 259.45 267.275 256.997 247.614 244.289 253.054 259.45"/><polygon class="cls-62" points="267.275 256.997 264.295 266.764 278.945 264.54 267.275 256.997"/><polygon class="cls-62" points="264.295 266.764 253.054 259.45 267.275 256.997 264.295 266.764"/><polygon class="cls-62" points="240.265 264.939 253.997 269.424 253.054 259.45 240.265 264.939"/><polygon class="cls-63" points="253.997 269.424 264.295 266.764 253.054 259.45 253.997 269.424"/><polygon class="cls-63" points="253.997 269.424 245.439 274.188 240.265 264.939 253.997 269.424"/><polygon class="cls-62" points="237.461 278.368 245.439 274.188 240.265 264.939 237.461 278.368"/><polygon class="cls-62" points="245.439 274.188 254.287 278.368 237.461 278.368 245.439 274.188"/><polygon class="cls-62" points="253.997 269.424 254.287 278.368 245.439 274.188 253.997 269.424"/><polygon class="cls-62" points="278.945 264.54 269.59 271.406 264.295 266.764 278.945 264.54"/><polygon class="cls-62" points="269.59 271.406 253.997 269.424 264.295 266.764 269.59 271.406"/><polygon class="cls-62" points="254.287 278.368 269.59 271.406 253.997 269.424 254.287 278.368"/><polygon class="cls-62" points="269.59 271.406 280.391 278.368 254.287 278.368 269.59 271.406"/><polygon class="cls-62" points="278.945 264.54 290.259 269.085 293.819 259.56 278.945 264.54"/><polygon class="cls-62" points="290.259 269.085 269.59 271.406 278.945 264.54 290.259 269.085"/><polygon class="cls-62" points="280.082 278.368 290.259 269.085 269.59 271.406 280.082 278.368"/><polygon class="cls-62" points="290.259 269.085 321.339 278.067 293.819 259.56 290.259 269.085"/><polygon class="cls-62" points="290.259 269.085 297.613 278.368 279.924 278.067 290.259 269.085"/><polygon class="cls-62" points="297.613 278.368 290.259 269.085 321.953 278.368 297.613 278.368"/><polygon class="cls-62" points="498.359 259.415 495.458 272.083 476.311 278.368 498.359 259.415"/><polygon class="cls-62" points="495.458 272.083 500.637 278.368 476.311 278.368 495.458 272.083"/><polygon class="cls-62" points="519.439 249.745 512.574 261.101 498.359 259.415 519.439 249.745"/><polygon class="cls-62" points="495.458 272.083 512.574 261.101 498.359 259.415 495.458 272.083"/><polygon class="cls-62" points="500.637 278.368 512.574 261.101 495.458 272.083 500.637 278.368"/><polygon class="cls-62" points="512.574 261.101 529.883 254.58 519.439 249.745 512.574 261.101"/><polygon class="cls-62" points="512.574 261.101 518.859 278.368 500.637 278.368 512.574 261.101"/><polygon class="cls-62" points="529.883 254.58 530.367 264.54 512.574 261.101 529.883 254.58"/><polygon class="cls-64" points="530.367 264.54 518.859 278.368 512.574 261.101 530.367 264.54"/><polygon class="cls-64" points="530.367 264.54 537.039 253.226 529.883 254.58 530.367 264.54"/><polygon class="cls-62" points="530.367 264.54 538.779 278.368 518.859 278.368 530.367 264.54"/><polygon class="cls-62" points="530.367 264.54 549.513 259.56 537.039 253.226 530.367 264.54"/><polygon class="cls-62" points="549.513 259.56 538.779 278.368 530.367 264.54 549.513 259.56"/><polygon class="cls-62" points="549.513 259.56 562.374 262.606 572.044 248.878 549.513 259.56"/><polygon class="cls-62" points="562.374 262.606 549.513 259.56 551.931 269.735 562.374 262.606"/><polygon class="cls-64" points="551.931 269.735 538.779 278.368 549.513 259.56 551.931 269.735"/><polygon class="cls-62" points="551.931 269.735 561.601 278.368 538.779 278.368 551.931 269.735"/><polygon class="cls-62" points="562.374 262.606 561.601 278.368 551.931 269.735 562.374 262.606"/><polygon class="cls-62" points="562.374 262.606 584.809 263.477 572.044 248.878 562.374 262.606"/><polygon class="cls-64" points="561.601 278.368 572.044 271.454 562.374 262.606 561.601 278.368"/><polygon class="cls-62" points="562.374 262.606 584.809 263.477 572.044 271.454 562.374 262.606"/><polygon class="cls-62" points="572.044 271.454 581.328 278.368 561.601 278.368 572.044 271.454"/><polygon class="cls-64" points="594.285 263.477 585.969 269.735 584.809 263.477 594.285 263.477"/><polygon class="cls-62" points="585.969 269.735 572.044 271.454 584.809 263.477 585.969 269.735"/><polygon class="cls-62" points="585.969 269.735 581.328 278.368 572.044 271.454 585.969 269.735"/><polygon class="cls-62" points="585.969 269.735 611.885 274.654 594.285 263.477 585.969 269.735"/><polygon class="cls-64" points="611.885 274.654 595.929 278.368 585.969 269.735 611.885 274.654"/><polygon class="cls-62" points="581.328 278.368 595.929 278.368 585.969 269.735 581.328 278.368"/><polygon class="cls-62" points="611.885 274.654 616.237 278.368 595.929 278.368 611.885 274.654"/><polygon class="cls-62" points="626.197 268.892 623.199 276.511 611.885 274.654 626.197 268.892"/><polygon class="cls-64" points="623.199 276.511 637.027 278.368 626.197 268.892 623.199 276.511"/><polygon class="cls-64" points="623.199 276.511 616.237 278.368 611.885 274.654 623.199 276.511"/><polygon class="cls-62" points="637.027 278.368 616.237 278.368 623.199 276.511 637.027 278.368"/><polygon class="cls-65" points="530.367 278.368 469.85 236.306 440.589 243.289 412.326 236.306 367.77 248.276 304.518 223.913 279.655 240.961 232.529 240.04 204.175 278.368 530.367 278.368"/><polygon class="cls-64" points="232.529 240.04 250.062 259.699 279.655 240.961 232.529 240.04"/><polygon class="cls-66" points="250.062 259.699 221.075 261.064 232.529 240.04 250.062 259.699"/><polygon class="cls-64" points="221.075 261.064 223.045 278.368 250.062 259.699 221.075 261.064"/><polygon class="cls-66" points="250.062 259.699 263.32 278.368 223.045 278.368 250.062 259.699"/><polygon class="cls-66" points="250.062 259.699 270.303 260.413 279.655 240.961 250.062 259.699"/><polygon class="cls-64" points="270.303 260.413 298.982 270.014 279.655 240.961 270.303 260.413"/><polygon class="cls-64" points="263.32 278.368 270.303 260.413 250.062 259.699 263.32 278.368"/><polygon class="cls-64" points="298.982 270.014 323.546 254.428 350.812 270.721 298.982 270.014"/><polygon class="cls-64" points="298.982 270.014 314.735 278.368 289.963 278.368 298.982 270.014"/><polygon class="cls-66" points="263.32 278.368 298.982 270.014 270.303 260.413 263.32 278.368"/><polygon class="cls-66" points="350.812 270.721 348.152 255.488 323.546 254.428 350.812 270.721"/><polygon class="cls-66" points="323.546 254.428 300.935 250.687 298.982 270.014 323.546 254.428"/><polygon class="cls-66" points="279.655 240.961 304.518 223.913 300.935 250.687 279.655 240.961"/><polygon class="cls-64" points="304.518 223.913 323.546 254.428 300.935 250.687 304.518 223.913"/><polygon class="cls-66" points="348.152 255.488 304.518 223.913 323.546 254.428 348.152 255.488"/><polygon class="cls-64" points="348.152 255.488 367.77 248.276 304.518 223.913 348.152 255.488"/><polygon class="cls-66" points="314.735 278.368 328.702 270.419 298.982 270.014 314.735 278.368"/><polygon class="cls-66" points="328.702 270.419 350.812 270.721 339.757 278.368 328.702 270.419"/><polygon class="cls-64" points="350.812 270.721 384.27 278.368 339.757 278.368 350.812 270.721"/><polygon class="cls-66" points="350.812 270.721 367.77 248.276 348.152 255.488 350.812 270.721"/><polygon class="cls-66" points="367.77 248.276 384.27 278.368 350.812 270.721 367.77 248.276"/><polygon class="cls-66" points="384.27 278.368 418.81 262.574 437.264 278.368 384.27 278.368"/><polygon class="cls-66" points="418.81 262.574 394.204 258.085 384.27 278.368 418.81 262.574"/><polygon class="cls-64" points="394.204 258.085 367.77 248.276 384.27 278.368 394.204 258.085"/><polygon class="cls-66" points="394.204 258.085 412.326 236.306 367.77 248.276 394.204 258.085"/><polygon class="cls-64" points="412.326 236.306 418.81 262.574 394.204 258.085 412.326 236.306"/><polygon class="cls-66" points="418.81 262.574 440.589 243.289 412.326 236.306 418.81 262.574"/><polygon class="cls-66" points="440.589 243.289 477.165 259.498 469.85 236.306 440.589 243.289"/><polygon class="cls-64" points="418.81 262.574 450.731 259.498 440.589 243.289 418.81 262.574"/><polygon class="cls-66" points="437.264 278.368 450.731 259.498 418.81 262.574 437.264 278.368"/><polygon class="cls-66" points="450.731 259.498 477.165 259.498 440.589 243.289 450.731 259.498"/><polygon class="cls-64" points="450.731 259.498 470.515 278.368 437.264 278.368 450.731 259.498"/><polygon class="cls-66" points="470.515 278.368 477.165 259.498 450.731 259.498 470.515 278.368"/><polygon class="cls-66" points="477.165 259.498 530.367 278.368 470.515 278.368 477.165 259.498"/><polygon class="cls-64" points="529.286 277.62 469.85 236.306 477.165 259.498 529.286 277.62"/><polygon class="cls-60" points="132.185 259.114 134.726 271.782 151.491 278.067 132.185 259.114"/><polygon class="cls-60" points="134.726 271.782 130.191 278.067 151.491 278.067 134.726 271.782"/><polygon class="cls-60" points="113.727 249.444 119.739 260.8 132.185 259.114 113.727 249.444"/><polygon class="cls-60" points="134.726 271.782 119.739 260.8 132.185 259.114 134.726 271.782"/><polygon class="cls-60" points="130.191 278.067 119.739 260.8 134.726 271.782 130.191 278.067"/><polygon class="cls-60" points="119.739 260.8 104.582 254.279 113.727 249.444 119.739 260.8"/><polygon class="cls-60" points="119.739 260.8 114.235 278.067 130.191 278.067 119.739 260.8"/><polygon class="cls-60" points="104.582 254.279 104.159 264.239 119.739 260.8 104.582 254.279"/><polygon class="cls-55" points="104.159 264.239 114.235 278.067 119.739 260.8 104.159 264.239"/><polygon class="cls-55" points="104.159 264.239 98.317 252.925 104.582 254.279 104.159 264.239"/><polygon class="cls-60" points="104.159 264.239 96.793 278.067 114.235 278.067 104.159 264.239"/><polygon class="cls-60" points="104.159 264.239 87.394 259.259 98.317 252.925 104.159 264.239"/><polygon class="cls-60" points="87.394 259.259 96.793 278.067 104.159 264.239 87.394 259.259"/><polygon class="cls-60" points="87.394 259.259 76.133 262.305 67.665 248.577 87.394 259.259"/><polygon class="cls-60" points="76.133 262.305 87.394 259.259 85.277 269.434 76.133 262.305"/><polygon class="cls-55" points="85.277 269.434 96.793 278.067 87.394 259.259 85.277 269.434"/><polygon class="cls-60" points="85.277 269.434 76.81 278.067 96.793 278.067 85.277 269.434"/><polygon class="cls-60" points="76.133 262.305 76.81 278.067 85.277 269.434 76.133 262.305"/><polygon class="cls-60" points="76.133 262.305 56.489 263.176 67.665 248.577 76.133 262.305"/><polygon class="cls-55" points="76.81 278.067 67.665 271.153 76.133 262.305 76.81 278.067"/><polygon class="cls-60" points="76.133 262.305 56.489 263.176 67.665 271.153 76.133 262.305"/><polygon class="cls-60" points="67.665 271.153 59.537 278.067 76.81 278.067 67.665 271.153"/><polygon class="cls-55" points="48.191 263.176 55.473 269.434 56.489 263.176 48.191 263.176"/><polygon class="cls-60" points="55.473 269.434 67.665 271.153 56.489 263.176 55.473 269.434"/><polygon class="cls-60" points="55.473 269.434 59.537 278.067 67.665 271.153 55.473 269.434"/><polygon class="cls-60" points="55.473 269.434 32.781 274.353 48.191 263.176 55.473 269.434"/><polygon class="cls-55" points="32.781 274.353 46.751 278.067 55.473 269.434 32.781 274.353"/><polygon class="cls-60" points="59.537 278.067 46.751 278.067 55.473 269.434 59.537 278.067"/><polygon class="cls-60" points="32.781 274.353 28.97 278.067 46.751 278.067 32.781 274.353"/><polygon class="cls-60" points="20.249 268.591 22.874 276.21 32.781 274.353 20.249 268.591"/><polygon class="cls-55" points="22.874 276.21 10.766 278.067 20.249 268.591 22.874 276.21"/><polygon class="cls-55" points="22.874 276.21 28.97 278.067 32.781 274.353 22.874 276.21"/><polygon class="cls-60" points="10.766 278.067 28.97 278.067 22.874 276.21 10.766 278.067"/><line class="cls-67" x1="750" y1="278.368" y2="278.368"/><ellipse class="cls-68" cx="375" cy="278.368" rx="786.505" ry="9.095"/><ellipse class="cls-69" cx="375" cy="278.368" rx="786.505" ry="5.286"/></g></g><g id="BACKGROUND_1" data-name="BACKGROUND 1"><g class="cls-70"><line class="cls-13" x1="-403.302" y1="278.368" x2="81.568" y2="500"/><line class="cls-13" x1="-388.596" y1="278.368" x2="234.808" y2="500"/><line class="cls-13" x1="-373.89" y1="278.368" x2="388.048" y2="500"/><line class="cls-13" x1="-359.184" y1="278.368" x2="541.288" y2="500"/><line class="cls-13" x1="-344.478" y1="278.368" x2="694.528" y2="500"/><line class="cls-13" x1="-329.772" y1="278.368" x2="847.769" y2="500"/><line class="cls-13" x1="-315.066" y1="278.368" x2="1001.009" y2="500"/><line class="cls-13" x1="-300.36" y1="278.368" x2="1154.249" y2="500"/><line class="cls-13" x1="-285.655" y1="278.368" x2="1307.489" y2="500"/><line class="cls-13" x1="-270.949" y1="278.368" x2="1460.729" y2="500"/><line class="cls-13" x1="-256.243" y1="278.368" x2="1613.969" y2="500"/><line class="cls-13" x1="-241.537" y1="278.368" x2="1767.209" y2="500"/><line class="cls-13" x1="-226.831" y1="278.368" x2="1920.449" y2="500"/><line class="cls-13" x1="-212.125" y1="278.368" x2="2073.689" y2="500"/><line class="cls-13" x1="-197.419" y1="278.368" x2="2226.929" y2="500"/><line class="cls-13" x1="-182.713" y1="278.368" x2="2380.17" y2="500"/><line class="cls-13" x1="-168.008" y1="278.368" x2="2533.41" y2="500"/><line class="cls-13" x1="-153.302" y1="278.368" x2="2686.65" y2="500"/><line class="cls-13" x1="-138.596" y1="278.368" x2="2839.89" y2="500"/><line class="cls-13" x1="-123.89" y1="278.368" x2="2993.13" y2="500"/><line class="cls-13" x1="-109.184" y1="278.368" x2="3146.37" y2="500"/><line class="cls-13" x1="-94.478" y1="278.368" x2="3299.61" y2="500"/><line class="cls-13" x1="-79.772" y1="278.368" x2="3452.85" y2="500"/><g class="cls-14"><ellipse class="cls-71" cx="-244.646" cy="479.083" rx="244.8" ry="3.701"/></g><g class="cls-14"><ellipse class="cls-72" cx="-155.625" cy="300.43" rx="244.8" ry="3.701"/><ellipse class="cls-73" cx="-155.625" cy="300.43" rx="180.989" ry="2.736"/></g><g class="cls-14"><ellipse class="cls-74" cx="-166.236" cy="325.926" rx="244.8" ry="3.701"/><ellipse class="cls-75" cx="-166.236" cy="325.926" rx="180.989" ry="2.736"/></g><g class="cls-14"><ellipse class="cls-76" cx="-154.93" cy="391.925" rx="244.8" ry="3.701"/><ellipse class="cls-77" cx="-154.93" cy="391.925" rx="180.989" ry="2.736"/></g><g class="cls-14"><path class="cls-78" d="M18.082,371.2c-.49,1.985-96.69-20.1-214.868-49.316s-213.582-54.518-213.092-56.5,96.691,20.1,214.869,49.317S18.573,369.22,18.082,371.2Z"/></g><ellipse class="cls-79" cx="-454.772" cy="278.368" rx="786.505" ry="9.095"/><ellipse class="cls-80" cx="-454.772" cy="278.368" rx="786.505" ry="5.286"/></g></g></g></svg>